<svg xmlns="http://www.w3.org/2000/svg" viewBox="0 0 1921.76 1921.33"><defs><style>.cls-1,.cls-10,.cls-11,.cls-12,.cls-13,.cls-14,.cls-15,.cls-16,.cls-17,.cls-18,.cls-19,.cls-2,.cls-3,.cls-4,.cls-5,.cls-6,.cls-7,.cls-8,.cls-9{fill:none;stroke-miterlimit:10;stroke-width:3px;}.cls-1{stroke:#eed777;}.cls-2{stroke:#efd276;}.cls-3{stroke:#f1cc75;}.cls-4{stroke:#f2c775;}.cls-5{stroke:#f4c174;}.cls-6{stroke:#f5bc73;}.cls-7{stroke:#f7b672;}.cls-8{stroke:#f8b172;}.cls-9{stroke:#faab71;}.cls-10{stroke:#fba670;}.cls-11{stroke:#f4a16d;}.cls-12{stroke:#ed9d6a;}.cls-13{stroke:#e69867;}.cls-14{stroke:#df9464;}.cls-15{stroke:#d88f60;}.cls-16{stroke:#d18b5d;}.cls-17{stroke:#ca865a;}.cls-18{stroke:#c38257;}.cls-19{stroke:#bc7d54;}</style></defs><title>Odyssey Web Elements 2</title><g id="Layer_1" data-name="Layer 1"><path class="cls-1" d="M1920.31,48.94s-37.75,62.07-118.39,75.45C1694.54,142.2,1651.29-33.4,1556.85,7.77,1508,29.08,1513,151.63,1494.79,180.58s-50.07,52-80.9,43c-18.35-5.34-32.63-20.74-48.32-32.54-30.9-23.25-75.17-31.93-104.58-6.41-67.34,58.44,14,204.82-51.91,265.16-38,34.74-98.64,8.76-128.29-34.79S1041,315.78,1019.89,266.5c-22.76-53.19-60.51-100.61-110.11-121.84s-111.39-11.71-147.5,31.49c-48.88,58.48-36.53,153.44-2.74,223.77a1951.11,1951.11,0,0,1,84.7,203.24c21.8,61.23,42.94,148.19-12,173.27C784,798.38,732.74,759.93,687.7,731s-113.5-43.71-140.31,5.71c-17.78,32.77-6.07,78.52-25.94,109.78-25.81,40.6-83.74,28-121.48,1.15S312.14,756.42,245.8,763.8C138.56,775.71,140.77,879,.73,956.35" transform="translate(0 0)"/></g><g id="Layer_2" data-name="Layer 2"><path class="cls-2" d="M1920.31,91.45s-35,61-111.39,77c-26.81,5.63-50-1-71.31-13.45C1679.13,121,1636.62,43.16,1569,66.89c-49.81,17.47-51.88,122.62-71.2,151.27-18.45,27.37-47.31,50.67-74.57,45.42-16.28-3.13-28.75-15.3-42.29-24.2-26.94-17.71-65.45-22.74-90.47,3.18-48.82,50.57-2.8,157.69-26.49,224.62-4.44,12.44-11.07,23.49-20.87,32.56-37.37,34.79-95,12.26-125-27.58-30.16-39.89-42.72-92.49-64.95-139.23-22.5-47.32-56-90.22-97.54-110.91-3.64-1.81-7.45-3.4-11.33-4.89-36.29-13.93-79.61-10.65-112.29,13.34a119.23,119.23,0,0,0-25.26,24.63c-23,30.89-30.17,71-28.44,111.94a347.07,347.07,0,0,0,21.18,104.44c4.9,13,9.31,25.34,13.47,37,10.32,29,19.4,54.6,28.2,85.33,5.63,19.68,12.51,40.84,20.08,63.55,9.12,27.29,18.65,59.69,20.35,89,2.09,34.68-6.81,64.85-36,77.51A70.93,70.93,0,0,1,816,829.78c-38-.53-76.46-28-110-51.57-23.16-16.33-49.27-31.44-74.47-37.48-26.3-6.31-51.34-3.17-68.66,17-15.73,18.35-20.94,45.55-27,73.7-2.61,12.14-5.36,24-10.34,34.67q-1.69,3.6-3.59,6.79c-16.5,27.76-44,32.63-70.39,28.05A147.62,147.62,0,0,1,424,893c-12-4.64-26.77-13.12-44.59-23.42C347.54,851.2,309,824.49,267.22,828.2a96.44,96.44,0,0,0-10.17,1.52c-36.85,7.39-60.92,27.27-85.39,44.7-20.86,14.85-35.9,26.49-56.35,42.23-13.4,10.31-31.48,25.24-47,47.68-15.25,22.23-38.15,36.25-67.53,45.25" transform="translate(0 0)"/></g><g id="Layer_3" data-name="Layer 3"><path class="cls-3" d="M1920.31,134.07s-32.17,59.83-104.4,78.6c-25.08,6.52-47.43,2.14-68.46-7.83-57.08-27-100.67-96.2-166.36-78.73-50.91,13.54-59.87,101.39-80.34,129.73-18.64,25.8-44.5,49.4-68.25,47.86-14.19-.92-24.86-9.84-36.26-15.86-23-12.13-55.73-13.48-76.37,12.77-40.8,51.9,2.24,154-22.26,217.81a83.36,83.36,0,0,1-20.55,31.39c-36.85,34.75-91.37,15.7-121.77-20.37-30.6-36.3-45.66-85.77-69-130-24.09-45.66-57.44-87.38-96.57-105.52a110,110,0,0,0-11.09-4.24c-34.22-11.54-75.28-7-105.29,19.48a125.83,125.83,0,0,0-22.32,25c-20.13,30.75-25.71,69.58-24.85,109.11.72,35.23,5.8,71.26,13.07,99.89,3.11,12.06,5.58,23.25,7.86,33.41,5.66,25.25,10.58,45.33,15.29,73.88,3,18.41,8.75,39,15.64,61.32,8.3,26.65,17.56,58.16,18.45,86.44,1.18,33.21-9.23,61.6-37.67,73.28a70.24,70.24,0,0,1-28.72,5.28c-37.07-.93-74.37-27.13-105.81-51.2-24.33-18.62-49-38-73.88-48.53-25.74-10.92-51.29-13.12-72.06,1.91C559.22,792.83,547,818,539.23,848.17c-3.29,12.92-5.67,25.94-9.63,37.73q-1.33,4-2.8,7.57c-12.75,31-33.29,41.21-54.89,44.13-7.72,1-15.83,1-23.91,1-11.34-.12-26.21-3.33-45.7-10.29-35.48-12.67-79.12-42.11-123.25-35a94.73,94.73,0,0,0-10.72,2.46c-37.74,10.71-62.18,36.3-90.34,51-23.79,12.45-38.41,14.29-59.25,22.5-14,5.51-35.26,19.3-48.05,48.45C58,1046.67,33.44,1059.38.84,1062.92" transform="translate(0 0)"/></g><g id="Layer_4" data-name="Layer 4"><path class="cls-4" d="M1920.31,180.33s-29.37,58.66-97.4,80.17c-23.36,7.39-44.85,5.28-65.6-2.2-55.61-20.06-100.57-80.84-164.09-69.33-52.19,9.46-67.81,80.19-89.48,108.19-18.77,24.26-41.59,48.12-61.92,50.3-12,1.29-21-4.35-30.23-7.52-19-6.48-46-4.14-62.26,22.36-32.77,53.4,7.16,150.33-18,211a87.7,87.7,0,0,1-20.22,30.22c-36.27,34.77-87.75,19.17-118.51-13.16-31.09-32.67-48.64-79-73-120.71-25.73-44-58.88-84.51-95.59-100.13a95.06,95.06,0,0,0-10.84-3.59c-32.09-9.23-71-3.53-98.28,25.63-7.1,7.58-13.95,15.69-19.39,25.3-17.3,30.58-21.25,68.2-21.26,106.28-.07,34.07,1.91,68.9,5,95.33,1.29,11.13,1.84,21.13,2.25,29.79,1,21.46,1.72,36.11,2.39,62.42.44,17.18,5,37.24,11.21,59.09,7.47,26,16.39,56.64,16.55,83.89.19,31.73-11.65,58.34-39.35,69a69.68,69.68,0,0,1-27.88,4.67c-36.17-1.33-72.17-26.49-101.66-50.82-25.46-21-48.77-44.47-73.29-59.57-25.17-15.5-51.37-23.13-75.46-13.2-22.75,9.37-41.92,32.63-51.32,64.74-4,13.7-6,27.83-8.91,40.8-.65,2.9-1.32,5.68-2,8.35-9,34.27-22.68,49.88-39.4,60.22-6.07,3.76-13.08,6.79-20.25,9.84-10.89,4.63-25.7,6.52-46.82,2.84-39.21-6.84-87.8-39-134.33-28.54a94.24,94.24,0,0,0-11.28,3.39c-38.63,14-63.43,45.35-95.3,57.37-26.7,10.07-41.41,1.89-62.14,2.76-15,.63-39,13.4-49.11,49.22s-36.32,47-72.14,45.12" transform="translate(0 0)"/></g><g id="Layer_5" data-name="Layer 5"><path class="cls-5" d="M1920.31,231.06s-26.58,57.43-90.4,81.75c-21.63,8.24-42.23,8.41-62.75,3.42-54.06-13.14-100.62-65.81-161.82-59.92-53.58,5.15-75.7,59-98.62,86.65-18.86,22.75-38.55,46.76-55.6,52.74-9.83,3.45-16.95,1.18-24.2.82-14.77-.74-36.22,5.28-48.16,31.94-24.65,55.06,12.06,146.62-13.81,204.2a93.4,93.4,0,0,1-19.89,29c-35.69,34.8-84.14,22.65-115.26-5.95-31.59-29-51.67-72.28-77-111.45-27.41-42.32-60.35-81.61-94.61-94.74a83.49,83.49,0,0,0-10.59-2.94c-29.9-7-66.77-.24-91.28,31.78-6,7.87-11.93,16.1-16.45,25.64-14.41,30.44-16.79,66.83-17.67,103.44-.86,32.91-1.93,66.53-3.15,90.77a171.05,171.05,0,0,1-3.37,26.16c-3.64,17.58-7.2,27-10.51,51-2.21,16,1.21,35.44,6.77,56.86,6.65,25.36,15.28,55.12,14.65,81.35-.72,30.26-14.07,55.09-41,64.81a69.27,69.27,0,0,1-27,4.07c-35.28-1.74-69.87-26-97.51-50.45-26.53-23.49-48.54-50.94-72.71-70.61-24.62-20-51.52-33.25-78.86-28.32-26.38,4.76-52.4,26.17-63.47,60.26-4.67,14.49-6.33,29.71-8.2,43.86-.42,3.14-.82,6.19-1.23,9.12-5.33,37.5-12,58.73-23.9,76.3A115.28,115.28,0,0,1,496,1041.36c-10.31,9.71-25.2,16.43-47.94,16-43-.88-96.48-35.92-145.41-22.1a94.09,94.09,0,0,0-11.84,4.33c-39.53,17.15-64.66,54.43-100.25,63.7-29.6,7.71-44.6-11.07-65-17-16-4.63-42.6,7.52-50.16,50C68,1178.72,40,1188.72.95,1181.34" transform="translate(0 0)"/></g><g id="Layer_6" data-name="Layer 6"><path class="cls-6" d="M1,1242.24c42.26,12.84,72,4.18,76.75-45s34.3-61,51.22-50.77c20.41,12.31,35.43,42.08,67.93,36.71,39.31-6.5,64.74-49.73,105.2-70a95.67,95.67,0,0,1,12.4-5.27c51.37-17,109.78,20.84,156.49,15.67,24.35-2.7,39.57-14.24,49.05-29.09A108.28,108.28,0,0,0,533,1066.83c7.17-24.78,6.75-51.65,8.41-92.38.13-3.2.27-6.51.45-9.9.81-15.33,2.13-31.66,7.48-46.93,12.72-36.07,45.61-55.74,75.62-55.78,30.6,0,58.16,18.86,82.26,43.44,23.79,24.27,44.6,55.59,72.12,81.66,25.88,24.51,59,47.94,93.37,50.08a69,69,0,0,0,26.2-3.46c26.22-8.74,41.08-31.8,42.71-60.58,1.43-25.21-6.92-54.08-12.75-78.8-4.89-21-7.24-39.83-2.33-54.63,7.2-21.7,15.27-25.87,23.41-39.5a83.78,83.78,0,0,0,9-22.54c5.51-22.07,9.61-54.47,11.26-86.21,1.74-35.16,2.56-70.3,14.08-100.61,3.6-9.46,8.51-17.85,13.51-26,21.56-35,56.59-42.83,84.27-37.92a74.39,74.39,0,0,1,10.34,2.29c31.8,10.66,64.49,48.73,93.63,89.34,26.33,36.69,49,76.8,81.08,102.2,31.46,24.88,76.9,33.58,112-1.26a101.09,101.09,0,0,0,19.57-27.87c26.51-54.49-6.78-140.54,9.59-197.4,7.7-26.75,23.82-36.76,34.05-41.53,5.43-2.53,10.59-3.68,18.17-9.16,13.82-10,30.37-33.9,49.27-55.18,24.21-27.24,52.72-64.54,107.76-65.11,58.81-.61,107.09,44.18,159.55,50.51,20.3,2.45,40,0,59.89-9,59.62-27.18,83.41-83.32,83.41-83.32" transform="translate(0 0)"/></g><g id="Layer_7" data-name="Layer 7"><path class="cls-7" d="M1.06,1302.89c45.48,18.3,76.91,11,79-44.94s34.73-67.38,52.27-51.54c20.68,18.68,35.43,59.49,70.83,56.44,43-3.7,68.74-52.94,110.15-76.37a96.07,96.07,0,0,1,13-6.21c53.78-20.38,117.15,20.53,167.58,9.23,26-5.82,41.64-22.29,50.17-42.22a117.79,117.79,0,0,0,9.27-36.52c2.53-32.06-5.1-64.49-7.09-108.47-.16-3.47-.28-7-.34-10.68-.24-16.5.73-33.94,6.77-50,14.38-38.05,54.18-56,87.76-51.31,33.91,4.78,62.07,29.45,85.65,58.55,23.4,28.87,43.13,64,71.53,92.7,24.19,24.48,55.72,47.17,89.22,49.71a69,69,0,0,0,25.36-2.85c25.48-7.76,41.86-29,44.39-56.34,2.24-24.19-5.84-52.17-10.85-76.26-4.22-20.56-5.58-38.8,2.11-52.4,11-19.41,23.85-18.28,36.32-28,5.45-4.27,10.49-10.62,14.59-18.92,9.82-19.89,16.93-51.07,19.37-81.65,2.61-33.7,1.87-67.6,10.48-97.78,2.68-9.39,6.55-18,10.57-26.31,18.39-38.17,51.84-47,77.26-44.07a67.13,67.13,0,0,1,10.1,1.64c29.31,8.25,61.73,45.08,92.65,84,27.24,34.25,52.49,71.2,85.11,92.94,31.78,21.17,74.25,26.43,108.74-8.47a111.87,111.87,0,0,0,19.24-26.7c27.14-51.42-2.48-131.87,5.36-190.59,3.58-26.82,14.08-41.47,19.95-51.12,3.51-5.77,6.72-10.12,12.14-17.5,10.44-14.2,24-37.79,42.95-57.61,25.56-26.79,60.42-47.9,116.9-43.57s106.45,41.45,157.28,41.11a118.44,118.44,0,0,0,57-14.67c55.39-30.1,76.41-84.9,76.41-84.9" transform="translate(0 0)"/></g><g id="Layer_8" data-name="Layer 8"><path class="cls-8" d="M1.11,1363.38c48.7,23.76,81.83,17.78,81.35-44.87s35.31-73.74,53.32-52.31c21.13,25.14,35.42,76.91,73.72,76.17,46.74-.9,72.72-56.17,115.1-82.7a96.87,96.87,0,0,1,13.51-7.15c56.18-23.71,124.58,20.26,178.66,2.8,27.66-8.93,43.75-30.41,51.29-55.34a134.42,134.42,0,0,0,5.61-45.41c-2.1-39.38-17-77.32-22.58-124.55-.45-3.74-.84-7.57-1.12-11.45-1.33-17.68-.68-36.22,6.05-53.06,16-40,62.79-56.38,99.91-46.83s66,40,89.05,73.67,41.77,72.24,70.95,103.75c22.58,24.39,52.46,46.39,85.08,49.34a69.29,69.29,0,0,0,24.52-2.25c24.74-6.78,42.66-26.28,46.07-52.11,3.06-23.17-4.77-50.27-8.95-73.71-3.54-20.12-4-37.84,6.54-50.17,14.69-17.22,32.43-10.5,49.22-16.59,7.47-2.71,14.32-7.94,20.2-15.29,14.14-17.7,24.25-47.67,27.48-77.09,3.48-32.24,1.19-64.9,6.89-95a172.85,172.85,0,0,1,7.64-26.65c15-41.37,47.1-51.29,70.26-50.22a61.19,61.19,0,0,1,9.85,1c26.81,5.9,58.92,41.48,91.67,78.56,28.12,31.84,56,65.62,89.15,83.68,32.1,17.48,71.62,19.29,105.48-15.68A127.76,127.76,0,0,0,1466,808.43c27.73-48.36,2.09-123.24,1.13-183.79-.43-26.9,3.8-46.07,5.84-60.71a116.57,116.57,0,0,1,6.12-25.84c6.78-18.47,17.73-41.63,36.62-60.05,27-26.29,68.21-31.62,126-22,54.16,9,105.77,38.59,155,31.7a131.65,131.65,0,0,0,54.18-20.29c51.11-33.09,69.41-86.47,69.41-86.47" transform="translate(0 0)"/></g><g id="Layer_9" data-name="Layer 9"><path class="cls-9" d="M1.17,1423.79C53.09,1453,87.93,1448.36,84.83,1379c-3.05-69.2,35.95-80,54.38-53.08,21.67,31.69,35.4,94.39,76.62,95.91,50.44,2,76.68-59.42,120.05-89a98,98,0,0,1,14.07-8.09c58.59-27,132.05,20,189.74-3.64,29.35-12,45.87-38.58,52.41-68.47a153.9,153.9,0,0,0,2-54.3c-6.66-46.74-28.88-90.14-38.08-140.63-.74-4-1.39-8.1-1.91-12.23-2.38-18.85-2.08-38.5,5.34-56.12,17.7-42,71.44-56.71,112.05-42.35s69.79,50.67,92.45,88.78,40.55,80.43,70.36,114.79c21,24.26,49.21,45.62,80.93,49a69.9,69.9,0,0,0,23.69-1.64c24-5.79,43.51-23.51,47.75-47.88,3.94-22.14-3.69-48.36-7-71.17-2.87-19.69-2.38-36.95,11-47.93,18.39-15.12,40.92-2.64,62.12-5.13,9.45-1.11,18.16-5.23,25.81-11.67,18.48-15.46,31.57-44.27,35.6-72.53,4.34-30.78.57-62.19,3.3-92.12a178.19,178.19,0,0,1,4.7-27c11.23-44.54,42.32-55.71,63.25-56.36a56.13,56.13,0,0,1,9.6.34c24.31,3.63,56.07,37.93,90.69,73.17,29,29.47,59.45,60.12,93.18,74.42,32.38,13.88,69.06,12.22,102.22-22.89a151.89,151.89,0,0,0,18.59-24.35c28.3-45.32,6.9-114.76-3.09-177-4.34-27.05-6.54-50.35-8.26-70.3-1-12-1.38-22.93.09-34.18,2.95-22.6,11.46-45.43,30.3-62.49,28.4-25.72,76.19-15.67,135.18-.49,52.05,13.4,105,35.61,152.74,22.29a148.32,148.32,0,0,0,51.32-25.91c46.76-36.14,62.42-88,62.42-88" transform="translate(0 0)"/></g><g id="Layer_10" data-name="Layer 10"><path class="cls-10" d="M1.23,1484.14c55.14,34.68,91.68,31.37,86-44.75-5.7-75.88,36.61-86.27,55.43-53.85,22.24,38.32,35.38,111.78,79.51,115.64,59.83,5.24,85.87-77.62,139.63-104.39,61-30.38,139.56,19.77,200.82-10.08,49.69-24.21,63.19-90.7,51.81-144.79s-40.69-103-53.57-156.72c-5.71-23.84-7.94-49.76,1.93-72.19,19.36-44,80.12-57.05,124.2-37.87s73.72,61.23,95.85,103.9,39.49,88.51,69.77,125.84c19.57,24.12,46,44.85,76.78,48.59s65.47-14.38,72.28-44.68c8.87-39.47-24.53-93.7,10.27-114.32,22.13-13.11,49.33,5.23,75,6.33,38.9,1.66,68.32-37.68,75.13-76s-4.39-78.11,1.47-116.6c8.66-56.85,50-63.85,65.6-62.82,59.78,3.94,191.36,245.08,304.16,79.66,63-92.45-92.93-289.37-11.65-357.52,54.95-46.07,193.14,77.1,294.79,33.94,81.38-34.56,103.89-121.16,103.89-121.16" transform="translate(0 0)"/></g><g id="Layer_11" data-name="Layer 11"><path class="cls-11" d="M1.18,1508.85c55.79,33.63,91,37.56,91.43-33.41.42-69.69,35.85-89.91,58.68-61.86,27,33.16,38.58,109.48,80.6,118.31,55.4,11.64,85.44-54.3,137.12-72.81,58.78-21.06,136,28.23,198.21,1.16,51.76-22.51,70.14-87.56,63.2-142.68s-32-106.51-43.15-161.91c-4.74-23.46-6.62-48.77,3.21-70.69,18.39-41,74.46-54,115.93-36.67,43.67,18.24,69.48,62.23,91.79,104,21.4,40.46,39.84,82.79,70.11,114.54,19.82,20.79,45.43,38.61,74.43,37.38,32.35-1.37,62.79-30.8,76.33-62.27,18.24-42.38,4.88-81.27,47.47-96.74,24.86-9,53.66,8.75,81.59,9,41.15.29,71.63-42,76.5-82.45,4.6-38.16-8.31-76.69-4.75-114.49,5.1-54.21,41.43-66.52,58.25-67.47,55.84-3.17,176.47,214.71,281.83,68.58,59.45-82.46-73.12-257.93-.6-322.93,49.82-44.66,165.33,50.53,259.17,9.73,74.46-32.2,96.4-102.9,101.84-104.2" transform="translate(0 0)"/></g><g id="Layer_12" data-name="Layer 12"><path class="cls-12" d="M1.13,1530.94c56.45,32.59,90.22,43.95,96.9-22.07,6.4-63.32,35.09-93.56,61.94-69.87,31.66,28,41.6,107,81.68,121,50.8,17.73,85.07-31,134.61-41.23,56.63-11.73,132.42,36.75,195.59,12.39,53.87-20.77,77.08-84.42,74.59-140.57s-23.32-110-32.74-167.11c-3.8-23.06-5.3-47.78,4.49-69.19,17.4-38.08,68.83-51,107.65-35.47,43.27,17.27,65.39,63.16,87.72,104.16,20.79,38.17,40.33,77.09,70.45,103.24,20.15,17.49,45.36,31.5,72.08,26.17,34.65-6.92,60.31-47.23,80.39-79.86,27.88-45.3,33.69-69.23,84.67-79.15,27.22-5.3,58,12.3,88.15,11.58,43.39-1,75-46.2,77.88-88.87,2.52-37.93-12.17-75.21-11-112.38,1.66-51.51,32.55-69,50.89-72.12,51.42-8.71,161.69,184.32,259.5,57.51,55.92-72.5-53.32-226.56,10.45-288.34,44.69-43.3,137.44,23.77,223.55-14.48,67.47-30,88.91-84.65,99.79-87.23" transform="translate(0 0)"/></g><g id="Layer_13" data-name="Layer 13"><path class="cls-13" d="M1.09,1546.37c57.1,31.54,89.26,50.54,102.37-10.73,12.16-56.8,34.33-97.2,65.19-77.87,36.37,22.85,44.53,104.23,82.77,123.64,46.12,23.42,84.77-7.6,132.1-9.65,54.55-2.36,128.91,45.33,193,23.62,56-19,84-81.28,86-138.45s-14.76-113.49-22.32-172.3c-2.91-22.66-4-46.79,5.77-67.69,16.39-35.13,63.22-48,99.38-34.28,42.89,16.27,61.2,64.14,83.65,104.29,20.09,35.93,41,71.38,70.79,91.94,20.59,14.2,45.4,23.54,69.72,15,37.31-13.16,58-63.6,84.44-97.45,37.69-48.15,62.25-57.72,121.87-61.56,29.45-1.9,62.32,15.87,94.72,14.21,45.63-2.34,78.56-50.39,79.25-95.29.58-37.67-15.95-73.69-17.18-110.27-1.64-48.75,23.53-71.25,43.54-76.76,46.86-12.9,147,153.93,237.17,46.43,52.47-62.58-33.56-195.3,21.49-253.76,39.56-42,109.6-2.88,187.94-38.68,60.52-27.66,81.42-66.39,97.74-70.27" transform="translate(0 0)"/></g><g id="Layer_14" data-name="Layer 14"><path class="cls-14" d="M1,1548.85c57.75,30.5,88,57.29,107.84.62,17.57-50.17,33.57-100.84,68.44-85.88,41.07,17.7,47.49,101.17,83.85,126.31,41.52,28.71,84.52,15.85,129.59,21.93,52.54,7.09,125.43,54,190.36,34.86,58.18-17.14,91-78.14,97.37-136.34s-6.29-116.94-11.9-177.5c-2.06-22.24-2.68-45.8,7-66.18,15.36-32.19,57.63-45.07,91.11-33.08,42.54,15.23,57,65.12,79.58,104.42,19.37,33.69,41.83,65.58,71.13,80.65,21.16,10.89,45.34,14.91,67.37,3.75,39.87-20.2,55.66-79.92,88.5-115,47.59-50.91,90.8-46.71,159.07-44,31.66,1.27,66.66,19.46,101.28,16.84,47.86-3.62,82.2-54.56,80.62-101.72-1.26-37.4-19.64-72.14-23.4-108.16-4.8-46,14.51-73.19,36.19-81.41,42.42-16.07,132.63,123.55,214.84,35.36,49.12-52.69-13.86-164.17,32.54-219.17,34.41-40.79,81.76-29.52,152.32-62.89,53.58-25.34,73.94-48.14,95.69-53.3" transform="translate(0 0)"/></g><g id="Layer_15" data-name="Layer 15"><path class="cls-15" d="M1,1551.27c58.41,29.45,86.3,64,113.31,12,22.58-43.55,32.8-104.48,71.69-93.88,45.78,12.54,50.63,97.83,84.94,129C308,1632,355.22,1637.72,398,1651.84c50.53,16.66,122,62.7,187.75,46.09,60.36-15.24,97.92-75,108.76-134.23s2.09-120.38-1.48-182.69c-1.25-21.81-1.39-44.82,8.32-64.68,14.3-29.26,52.06-42.19,82.83-31.88,42.21,14.15,52.77,66.12,75.52,104.55,18.63,31.47,42.88,59.59,71.47,69.35,21.87,7.46,45,5.89,65-7.46,42-28,53.41-96.17,92.55-132.63,57.54-53.59,119.45-36.07,196.27-26.39,33.93,4.28,71,23.06,107.84,19.47,50.11-4.88,86-58.74,82-108.14-3-37.13-23.21-70.58-29.62-106-7.79-43.15,5.62-74.79,28.84-86.05,38.22-18.54,118.53,93.25,192.51,24.28,45.93-42.82,5.74-133.18,43.59-184.58,29.21-39.67,53.92-56.14,116.7-87.09,46.64-23,66.45-29.88,93.64-36.34" transform="translate(0 0)"/></g><g id="Layer_16" data-name="Layer 16"><path class="cls-16" d="M1,1553.63c59.06,28.41,84.14,70.6,118.78,23.3,27.18-37.11,32-108.12,74.95-101.89,50.49,7.39,54,94.3,86,131.64,33,38.46,84,63,124.57,85.1,48.47,26.34,118.52,71.47,185.13,57.32C653,1735.82,695.27,1677.24,710.56,1617s10.35-123.81,8.94-187.89c-.47-21.39-.11-43.85,9.6-63.18,13.23-26.34,46.52-39.38,74.56-30.68,41.9,13,48.52,67.12,71.45,104.68,17.87,29.27,44,53.34,71.81,58.05,22.66,3.84,44.45-3.32,62.66-18.67,43.35-36.54,51.16-112.39,96.61-150.22,67.52-56.21,148.25-25.71,233.47-8.8,36.27,7.2,75.32,26.67,114.41,22.1,52.35-6.13,89.86-62.93,83.37-114.57-4.64-36.88-26.65-69-35.83-103.94-10.63-40.38-3-76,21.49-90.7,34.35-20.58,104.92,63.14,170.18,13.21,43-32.91,25.19-102.36,54.64-150,23.9-38.67,26.1-82.73,81.08-111.3,39.71-20.63,59-11.63,91.59-19.37" transform="translate(0 0)"/></g><g id="Layer_17" data-name="Layer 17"><path class="cls-17" d="M.91,1558.17c59.71,27.36,81.58,76.68,124.25,34.64,31.49-31,31.28-111.76,78.2-109.9,55.2,2.23,57.71,90.68,87.11,134.31,29.1,43.19,83.61,86.72,122.06,116.68,46.31,36.08,115.08,80.3,182.52,68.56,64.75-11.27,111.81-68.72,131.54-130S745.09,1545.2,746,1479.37c.27-21,1.15-42.88,10.88-61.67,12.13-23.43,41-36.62,66.29-29.48,41.62,11.74,44.24,68.15,67.38,104.81,17.09,27.07,45.18,46.8,72.15,46.75,23.43,0,43.59-12.56,60.31-29.88,43.9-45.49,48.92-128.58,100.66-167.81,77.51-58.78,177.19-15.54,270.67,8.79,38.67,10.06,79.66,30.29,121,24.72,54.6-7.36,93.87-67.17,84.74-121-6.22-36.65-30-67.58-42.05-101.83-13.31-37.68-11.33-76.87,14.13-95.35,30.86-22.4,92,33.53,147.86,2.13,40.5-22.76,44.4-71.71,65.69-115.41,18.41-37.8-1.71-109.27,45.47-135.5,32.8-18.24,51.47,6.63,89.54-2.41" transform="translate(0 0)"/></g><g id="Layer_18" data-name="Layer 18"><path class="cls-18" d="M.86,1567.3c60.37,26.32,78.81,82.11,129.72,46,35.74-25.36,30.52-115.4,81.45-117.9,59.9-2.92,61.68,87.06,88.2,137,25.47,48,83.17,110.41,119.55,148.26,44.06,45.82,111.63,89.18,179.9,79.79,66.95-9.21,118.75-65.58,142.93-127.89s26.54-130.72,29.78-198.28c1-20.56,2.39-41.93,12.15-60.17,11-20.54,35.47-33.92,58-28.29,41.37,10.35,39.93,69.2,63.32,104.94,16.29,24.89,46.15,40,72.49,35.45,24.08-4.18,42.49-21.72,58-41.09,43.66-54.68,46.68-144.74,104.72-185.4,87.5-61.31,206.27-5.49,307.87,26.37,41.13,12.9,84,34,127.54,27.35,56.86-8.52,98-71.44,86.11-127.42-7.74-36.44-33.11-66.21-48.27-99.72-15.87-35.08-19.17-77.39,6.78-100,27.78-24.2,79.73,5.08,125.53-8.94,38.46-11.78,63.26-41.16,76.74-80.83,12.58-37-29.47-135.75,9.85-159.71,25.91-15.79,44,24.88,87.49,14.56" transform="translate(0 0)"/></g><g id="Layer_19" data-name="Layer 19"><path class="cls-19" d="M.81,1577.14C61.83,1602.41,77,1664,136,1634.46c40.14-20.11,29.76-119,84.7-125.91,64.61-8.08,65.87,83.5,89.28,139.64C332,1701,392.65,1782.27,427,1828c41.73,55.54,108.17,98.1,177.28,91s125.7-62.44,154.32-125.77,34.45-134.22,40.2-203.48c1.67-20.15,3.58-41,13.43-58.67s30-31.3,49.74-27.09c41.15,8.76,35.58,70.28,59.25,105.06,15.47,22.73,46.85,33.13,72.83,24.16,24.5-8.47,41.19-30.76,55.6-52.3,42.74-63.91,44.44-160.88,108.77-203,97.48-63.81,235.45,4.47,345.07,44,43.63,15.72,88.34,37.56,134.1,30,59.1-9.79,102.23-75.78,87.48-133.84-9.21-36.28-36.14-65-54.49-97.61s-26.51-77.65-.57-104.64c25.1-26.12,67-21.37,103.2-20s81.66-10.53,87.78-46.24c6.22-36.25-57.14-162.09-25.77-183.92,19.08-13.27,36.5,43.14,85.44,31.52" transform="translate(0 0)"/></g></svg>