<svg xmlns="http://www.w3.org/2000/svg" viewBox="0 0 1280.8 853.72"><defs><style>.cls-1{isolation:isolate;}.cls-2{fill:#ccc;}.cls-3{fill:#fba670;}.cls-4,.cls-6,.cls-8{fill:none;stroke-miterlimit:10;}.cls-4{stroke:#fba670;}.cls-5{fill:#eed777;}.cls-5,.cls-6{mix-blend-mode:multiply;}.cls-6{stroke:#eed777;}.cls-7{fill:#3780cd;}.cls-8{stroke:#3780cd;}</style></defs><title>2000px-Washington-state-map_h</title>
<g class="cls-1">
	<g id="map">
		<path class="cls-2" d="M249.3,125.28c-.34.65.33,1.36.45,2,.53,2.71,1.53,5.34,1.42,8.17-.1,2.48,0,5,0,7.44a10.51,10.51,0,0,0,2.43,6.73,32.17,32.17,0,0,0,8,7.12c2.84,1.76,5.51,3.83,8.42,5.47s6,3,9.45,2.94c3-.05,6,0,9.05,0s6.37,2.1,7.25,4.86c.29.91.22,1.82,1.27,2.27a9.54,9.54,0,0,0,2.64.68c2.47.32,4.77-.61,7.17-.76a4.74,4.74,0,0,0,2.82-1.74c.63-.67.39-1.4.4-2.1,0-2.26,0-4.53,0-6.79a14,14,0,0,1,1.63-6.11c.57-1.17,1.45-2.2,2-3.38a6.93,6.93,0,0,0,.94-3.19c0-1.06-.73-1.46-1.24-2.09a9.46,9.46,0,0,1-.58-.91c.3-.05.6-.11.91-.15,2-.25,2.13-.41,2.19-2.72a2.63,2.63,0,0,1,.55-1.37,17.54,17.54,0,0,1,1.35-1.39,2.35,2.35,0,0,0,0-3.32c-2-2.51-5.12-3.41-7.51-5.37a7.65,7.65,0,0,0-2-.66,2.74,2.74,0,0,0-3.45,2.62c-.18,2,.57,3.85,1,5.74s1.33,4,.93,6.06a4.18,4.18,0,0,1-1.14,2.31,10.81,10.81,0,0,0-3.41,3.52,2.93,2.93,0,0,1,0,.73c-.15,1.15.52,1.74,1.16,2.46a9.15,9.15,0,0,1,1,1.56c-.17.45-.19.61-.24.62s-.37.06-.44,0c-.87-.89-1.95-1.62-2.29-2.92a4.36,4.36,0,0,1-.3-1.74,11.66,11.66,0,0,1,.87-2.21c.06.4,1.07-4.72-.44-7.52-.58-1.07-1.63-1.89-2.2-3a6.82,6.82,0,0,0-2-2.07c-1.27-1-1.87.74-2.92.38,1.7-1.84,3.27-3.58,4.91-5.25a8.52,8.52,0,0,0,2.27-7.45c-.06-.51-1.13-.94-.33-1.52.22-.16,1.16.3,1.49.7,1.1,1.32,3.17,2,2.79,4.35,0,.18.28.48.5.62a3.39,3.39,0,0,0,5.29-2.54c.28-3.22.61-3.5,3.86-4.6,1.9-.65,3.88-1.19,5.29-2.9a2.14,2.14,0,0,0,.52-2c-.53-1.77-1.19-3.64-2.82-4.62-2.71-1.63-5-3.91-7.81-5.32-2.69-1.33-5-3.4-8-4.15-.93-.23-2.15-.34-2.52-1.72-.08-.32-1.05-.46-1.64-.58-2.45-.51-4.75.63-7.17.7a6.61,6.61,0,0,0-3,1.26,4.16,4.16,0,0,0-1.87,1.91,8.37,8.37,0,0,1-1,1.88c-1.72,3.08-4.71,5-6.76,7.84a29.21,29.21,0,0,0-4.45,7.88,4.89,4.89,0,0,0,.45,4.47,3.28,3.28,0,0,0,2.91,1.24,1,1,0,0,1,.94,1.47c-.28.64-.71,1.21-1,1.83a26.27,26.27,0,0,0-1.36,2.67c-.71,1.79-.11,2.82,1.79,3a5.47,5.47,0,0,1,3.66,2.1,6.81,6.81,0,0,1,1.52,2.79,4.11,4.11,0,0,1,2.66,1.59,1.34,1.34,0,0,1,.23,0c.67.16,1.6.77,1.92.52a2.33,2.33,0,0,1,2-.46,8.12,8.12,0,0,1-.44,2.19c-1.85,3.59-2.35,7.63-3.8,11.35-1,2.63-2.22,3.26-4.6,1.92-1.89-1.07-2.56-2.11-2.55-3.94a3.47,3.47,0,0,1,3-3.73c2.14-.33,2.9-1.95,4.09-3.19s.75-2.35.07-3.51a5.51,5.51,0,0,1-2.25-1v.06a4.18,4.18,0,0,0-.35-.28c-1.75-1.34-4.66-3.74-6.26-5.25-1.88-1.77-3.68-3.63-5.5-5.48a22,22,0,0,0-5.74-4.11,2,2,0,0,1-1.34-1.52c-.51-2.59-1.66-3.62-4.1-3.67-2,0-4.1-.08-6.14,0a8.44,8.44,0,0,0-2.95.66A3.57,3.57,0,0,0,249.3,125.28ZM294,114.91a3.11,3.11,0,0,1,1.52-.9c.61-.2.73.24,1,.79.63,1.29,1.42,2.43,1.27,4a1.74,1.74,0,0,1-1.2,1.63,1.49,1.49,0,0,1-1.88-.79,21.44,21.44,0,0,1-.9-2.65C293.88,115.92,293.73,115.26,294,114.91Zm-6.27,17.84h-1.05c-1.59-.58-3.8-.8-4.7-3.16-.27-.71.49-2,1.22-2,2.36,0,3.76,1.45,4.85,3.31.1.17.2.35.29.53C288.88,132.51,288.79,132.72,287.72,132.75Zm4.85-39.32a3.94,3.94,0,0,1,0-4.24c.36-.67.88-.48,1.32-.42.25,0,.54.47.62.78a10.79,10.79,0,0,1,0,2,7.89,7.89,0,0,1-.55,1.85C293.62,94.15,293,94.06,292.57,93.44Zm-16.45,7.7c2.91.63,4.32,2,3.09,5.28a13.28,13.28,0,0,1-4.18,6,2.55,2.55,0,0,1-3.22.36,2.27,2.27,0,0,1-1.24-2.37,3.92,3.92,0,0,0-1.45-3.55,3.29,3.29,0,0,1-1.13-3c.15-.9.85-1.13,1.57-1.6A8.52,8.52,0,0,1,276.12,101.13Zm-30.83,6.15A1.93,1.93,0,0,1,247,107a9,9,0,0,1,4.19,4c1.32,2.65.41,4.33-3.06,4.36l-1.5-.34C244,114.31,243.09,109.12,245.28,107.28ZM385.47,269.94c-1.39-.2-2.48-1.59-2.27-2.5a3,3,0,0,1,2.82-2h.32a4.94,4.94,0,0,1,1.6,0c.63.23,1.48.58,1.66,1.09a6.41,6.41,0,0,1,0,2.51c0,.1-.36.14-.51.25A4.55,4.55,0,0,1,385.47,269.94ZM349.22,136.64c-1.82,0-2.24-.41-2.27-2.18,0-2,.36-2.39,2.43-2.35,1.78,0,2.13.42,2.1,2.35C351.46,136.22,351,136.64,349.22,136.64ZM261.35,37.09a1.6,1.6,0,0,1,.41-2.64,5.32,5.32,0,0,1,2.28-.69c2.55.15,4.94-1.1,7.5-.7,1.63.26,3.29.36,4.9.7.54.11,1,.74,1.46,1.14.66.54.33.93,0,1.59A15.37,15.37,0,0,0,277,40c-.36,1.87-1.13,2.63-3,2.76-1.07.07-2.16,0-3.47,0-1.28-.29-2.84.42-4.39-.58-.91-.58-1.5-1-1.42-2.09s-.46-1.85-1.61-1.84C262.2,38.28,261.83,37.6,261.35,37.09ZM111.82,518.17a2.46,2.46,0,0,1,.25,2.94c-.68,1.16-1.45.38-1.55.43-2.12.72-2.95-.42-3.67-1.39-.59-.79.16-2.8,1-3.67.51-.5.91-.75,1.57-.16S111.28,517.38,111.82,518.17Zm1168.6,180c-1.3-1.13-2.46-2.42-3.68-3.64l-6.64-6.64a90,90,0,0,0,4.35-8.49c1.44-3.67,3.19-7.34,2.71-11.51-.12-1.08-.06-1.9-1.38-2.49a4,4,0,0,1-2.68-3.57c-.06-1-.79-2-1.07-3.09-.76-2.91-1.65-5.78-2.54-8.65-.62-2-1.35-4-2-6a24.54,24.54,0,0,0-2.57-6.06c-.51-.77-.9-1.83-1.63-2.19-2.48-1.25-3.61-3.5-5-5.68-2.23-3.49-2.4-7.5-3.08-11.33-.56-3.19-.14-6.48-.61-9.77-.69-4.81.23-9.73-.69-14.62-.64-3.39,0-6.91-.59-10.42-.63-3.7,0-7.58-.73-11.37-.5-2.77.28-5.64-.61-8.49a12.46,12.46,0,0,1,0-5.14c.23-1.75-.7-3.23-.73-4.92a40.11,40.11,0,0,0-.49-8.17c-.63-2.82-.05-5.83-.68-8.79-.56-2.63-.08-5.4-.62-8.15-.6-3.06-.06-6.27-.68-9.43-.55-2.86,0-5.83-.63-8.8s0-6-.65-9.12,0-6.05-.66-9.12c-.57-2.63,0-5.4-.64-8.15-.57-2.28-.09-4.75-.64-7.17s-.07-4.76-.67-7.17c-.49-2,.09-4.13-.66-6.21-.41-1.15,0-2.57-.1-3.86s-.46-2.62-.61-3.94c-.22-1.85.16-3.69-.55-5.6-.53-1.42,0-3.2-.13-4.81s-.46-3.27-.61-4.91a58,58,0,0,0-.53-6.55c-.58-2.83-.11-5.84-.71-8.78-.5-2.44.14-5-.62-7.51-.5-1.68-.13-3.64-.09-5.47s-.86-3.39-.73-5.24.58-4-.57-5.88a54.09,54.09,0,0,0-.61-10.09c-.36-2.26.21-4.56-.59-6.88-.5-1.45,0-3.21-.12-4.82s-.46-3.27-.61-4.91c-.24-2.61,0-5.19-.53-7.85-.6-2.94-.09-6.06-.71-9.11-.51-2.54.17-5.2-.63-7.84-.48-1.58,0-3.43-.11-5.15s-.44-3.49-.61-5.24a67.86,67.86,0,0,0-.52-6.88c-.6-3-.09-6.27-.72-9.43-.49-2.44-.08-5-.58-7.51-.58-2.94-.09-6.06-.71-9.11-.51-2.54,0-5.18-.6-7.83-.6-2.83-.09-5.83-.68-8.79-.53-2.64-.08-5.4-.62-8.15s-.08-5.84-.69-8.79c-.53-2.54.44-5.28-.72-7.81.48-3.83-.78-7.56-.66-11.38.1-3.16-1.12-6.25-.64-9.44,0-.11,0-.25,0-.32-1.08-1.41-.74-3.08-.58-4.58.19-1.75-.68-3.25-.73-4.92-.07-2.29.23-4.57-.54-6.88-.48-1.46,0-3.21-.11-4.82s-.47-3.27-.61-4.91c-.25-3,.2-6.07-.55-9.14-.55-2.24,0-4.72-.13-7.09s-.44-4.78-.62-7.18c-.3-3.9.14-7.78-.51-11.73-.68-4.13,0-8.44-.74-12.66-.47-2.56.31-5.23-.63-7.84-.41-1.15,0-2.57-.09-3.86s-.49-2.62-.61-3.94c-.25-2.82,0-5.62-.53-8.49-.62-3.15-.11-6.48-.71-9.75-.54-3,0-6-.59-9.13-.61-3.38,0-6.93-.72-10.4-.48-2.44-.09-5-.58-7.51-.6-3.16,0-6.49-.71-9.75-.53-2.54-.17-5.19-.57-7.83-.51-3.4-.22-6.93-.77-10.39-.36-2.26.22-4.56-.59-6.88-.5-1.44,0-3.21-.12-4.82s-.46-3.27-.61-4.91c-.24-2.6.29-5.22-.57-7.85-.48-1.46,0-3.21-.11-4.82s-.47-3.05-.61-4.59c-.24-2.71,0-5.41-.53-8.17-.6-3.16-.1-6.49-.71-9.75-.51-2.76.17-5.64-.63-8.48-.48-1.7,0-3.65-.11-5.48s-.57-3.49-.59-5.24c0-2.69-1.28-4.27-3.55-5.67-3.53-2.18-7.49-2.43-11.34-3.1-2.34-.4-4.83.18-7.16-.72-6.73.47-13.4-1-20.12-.66-1.18.06-2.38-.06-3.56,0-3.69.23-7.36-.22-11.09.5-2.69.52-5.46.86-8.19,1.35-2.23.4-4.55.2-6.86.63-2.76.51-5.62.11-8.47.64-3.39.62-6.91,0-10.41.65s-6.91,0-10.41.64-6.92,0-10.41.66c-3.06.61-6.26,0-9.45.62-2.84.57-5.84.1-8.78.69-2.54.52-5.19-.13-7.84.62-2,.58-4.31.08-6.53.64s-4.32.16-6.52.65-4.75.15-7.18.63c-2.63.52-5.41.17-8.14.67s-5.83.12-8.8.62c-3.72.63-7.56,0-11.38.67s-7.56-.05-11.39.63c-4,.72-8.2-.07-12.35.65s-8.2,0-12.35.64-8.63,0-13,.65c-4.69.72-9.5-.14-14.29.66-4.36.73-8.86-.21-13.33.65-3.59.69-7.34-.1-11.06.64-3.16.63-6.48,0-9.76.66-2.84.6-5.83,0-8.8.62s-5.83.16-8.78.68c-3.3.58-6.71-.17-10.1.64-2.14.51-4.52,0-6.77.13s-4.31-.27-6.58.47c-2,.67-4.48.14-6.75.14-2.59,0-5.18,0-7.77,0s-5.16,1.07-7.82.65a1.76,1.76,0,0,0-.94.06c-2.95,1.32-6.18,1.28-9.27,1.77-3.51.56-7.13.22-10.73.63-6,.69-12.14-.52-18.17.76-16.74.29-33.49-.66-50.22.64-3.79.29-7.57-.21-11.41.53-3.37.64-6.91.23-10.4.68-4.82.62-9.72,0-14.62.61-5.77.75-11.67-.08-17.53.69-5.46.72-11-.09-16.57.61-6.1.77-12.31-.06-18.5.68s-12.31-.07-18.51.6c-7.61.83-15.34-.16-23,.69-7,.77-14.07-.51-21.09.68a29.07,29.07,0,0,1-7.43,0c-2.47-.23-4.77.66-7.18.73-2,.05-3.92-.3-5.92.53-1.2.49-2.77,0-4.17.12s-2.62.47-3.94.61c-2.6.26-5.21.44-7.82.67-.29,0-.55.25-.84.31-1.84.39-3.71,1-5.26-.72a11.89,11.89,0,0,0-2.66-.41,50,50,0,0,1-6.14.77c-10,.08-20.06,0-30.1,0H480.48c-10,0-20.07-.11-30.1,0s-19.88-.31-29.84.49c-7.61.61-15.31.12-23,.12s-15.11-.13-22.65,0-15.14-.45-22.72.5c-4.67.59-9.48,0-14.23.13s-9.55-.37-14.31.57c-2,.39-4.09,0-6.14.07-.81,0-1.94,1.07-2.47,1.74-.91,1.13-.42,1.87.4,2.71.33.34.41.92.72,1.3s.35.7-.27.71c-1.29,0-2.59,0-3.88,0a7.52,7.52,0,0,0-7,5.4,6,6,0,0,0,2.93,6.46,3.92,3.92,0,0,0,2.09.42c1.51,0,3-.05,4.53.05a1.68,1.68,0,0,1,1.2.86c.13.32-.16,1-.46,1.29a7.29,7.29,0,0,1-3.86,2.4c-2.09.53-2.62,2.43-1.35,4.13a37,37,0,0,0,3,3.62c3,3.11,6.2,6,8.5,9.75a7.41,7.41,0,0,1,1.52,3.61,3.77,3.77,0,0,0,1,2.15c1.34,1.47,2.65,3.05,4.53,3.86s3.14,2.28,2.78,4.3a43.73,43.73,0,0,1-2.07,6.57,6.12,6.12,0,0,1-.9,1.32,4.37,4.37,0,0,0-.26-1.51,16.48,16.48,0,0,0-1.83-2.47c-.22-.25-.93-.46-1-.34-.68.72-1.81.71-2.32,1.87a13.06,13.06,0,0,0-1.28,5,3.24,3.24,0,0,0,1.84,3.36,5.29,5.29,0,0,1,2.15,2.07,44.52,44.52,0,0,1,2.6,4.75c1,2,2.15,4.15,4.12,5.36,1,.6,1.26.57.56,1.68s-.22,1.77,1.09,1.69c1.47-.09,2.72.08,3.67,1.38a3,3,0,0,0,1.31.7,13.09,13.09,0,0,0,1.33.39c.18-.78,1.22-.23,1.56-1.25a6.05,6.05,0,0,0,0-4.72c-1.51-3.57-4.48-5.74-7.26-8.1-.88-.74-2-1.18-1.9-2.61,1.89,1.14,3.33,2.94,5.67,3.51a4.71,4.71,0,0,0,2.5-.16c1.38-.3,1.23-1.48,1.43-2.07a9.92,9.92,0,0,0,.09-3.84,1.56,1.56,0,0,0-2.62-.94c-.5.4-.89.94-1.4,1.35-.2.16-.57.12-.86.17,0-.37-.09-.74-.1-1.11,0-.07.17-.14.21-.23,1.48-2.87,7.23-8,10.2-8.83.92-.26,2,.15,3,.2,1.54.06,2.57,1.17,3.74,1.89,1.74,1.07,1.75,1.82.76,4a13.84,13.84,0,0,1-.76,1.95,3.14,3.14,0,0,0,0,3.77,28.3,28.3,0,0,1,1.41,3.29c.94,2.09.87,3-.31,4.84-1.05,1.64-1.48,3.3-.36,5.16s2.15,3.72,3.92,4.8c2.15,1.31,3.61,3.25,5.39,4.89a15.46,15.46,0,0,1,1.85,2.46,4.59,4.59,0,0,1,.34.68c-.29,0-.7.18-.85,0-.52-.46-.92-.84-1.6-.2s-.91,1.13-.11,1.83c.18.15.11.59.14.9.11,1-.1,1.26-1.26,1.61a12.41,12.41,0,0,1-4.3.48,5.78,5.78,0,0,0-4.42,1.89,2.58,2.58,0,0,0-.7,3.35c1,2.18,2,4.37,2.74,6.63A24.84,24.84,0,0,1,358,156.27a2.18,2.18,0,0,1-3.48,1.72c-.78-.48-1.52-1-2.28-1.54l-1.37-1.37c-.08-.29-.08-.77-.25-.84-1-.42.25-1.72-1-2.1a6.48,6.48,0,0,0-2.66-.62,10.61,10.61,0,0,1-1.94,0c-.19,0-.53-.4-.53-.41,1.13-1.45.29-3.11.48-4.66.1-.81.59-.62,1.08-.77,1.64-.51,2.66-1.87,2.11-2.92a13.83,13.83,0,0,0-4.37-5.5c-2.51-1.67-5.42-2.84-7-5.8-.8-1.5-2.69-1.51-4.26-1.24a1.59,1.59,0,0,0-1.15,2c0,.16-.18.35-.27.52a5.68,5.68,0,0,0-.46-.39c-.91-.62-.62-1.6-.49-2.36s1.06-.4,1.63-.44a3.38,3.38,0,0,0,2.59-5.13,6.52,6.52,0,0,0-8-2.06c-1.06.48-1.51,1-1.42,2.09a1.65,1.65,0,0,1-1.31,1.86c-1.52.54-2.07,2-2.54,3.28s-.4,2.94-.89,4.17a6.16,6.16,0,0,0-.34,3.67c.34,1.42.3,3,1.34,4.3,1.43,1.83,3.58,1.9,5.43,2.59.88.32,2.17-.3,3.22-.64a12.52,12.52,0,0,0,2-1.07,6.59,6.59,0,0,1,.77,2.24,9.47,9.47,0,0,0,.68,3,4.91,4.91,0,0,1-.09,1.56A6,6,0,0,0,332,149c-1.94-.21-3.88,0-5.09,1.68a20.78,20.78,0,0,0-2.52,4.77,15.55,15.55,0,0,0-.68,4.24c-.11,1.5,0,3,0,4.53a1.38,1.38,0,0,0,1.25,1.55c.77.07,1.81.61,2.18-1,.23-1,1-1.9,1.18-3.07a14.66,14.66,0,0,1,1.49-3.57c.13-.28.56-.7.65-.65.36.18.83.48.9.81a15.91,15.91,0,0,0,.33,2.78c.26.62.67,1,.06,1.61-.43.45-.28,1.4-1.41,1.26-.44-.05-1.38.65-1.37,1,.07,2.45-.76,5.07,1.34,7.2a4,4,0,0,1,1.18,3.38c-.25,2.06-.15,4.23-.78,6.16a42.78,42.78,0,0,1-1.29,4.64,17.41,17.41,0,0,1-4.08,5.44c-.89.84-2,1.87-2.19,2.94-.61,4.4-2.9,8.11-4.68,12a23.54,23.54,0,0,0-2.55,10.28,10.05,10.05,0,0,0,4,8,52.61,52.61,0,0,1,4.68,4.23,7.31,7.31,0,0,1,2.36,4.83,3.29,3.29,0,0,0,2.52,2.93,4.82,4.82,0,0,0,2.87,0c.52-.16.8-1.08,1.2-1.64s.92-1,1.65-.25a5.47,5.47,0,0,0,1.33.67c2.89,1.58,3.44,3.17,2.09,6.08-.59,1.27-1.24,2.51-1.77,3.8a3.88,3.88,0,0,0,1.17,4.32c.36.28.78.23.2.68-2,1.57-1.91,1.52-.43,3.43,1,1.35,2.28,2.79,2.66,4.37.42,1.77,1.09,3.58.79,5.53-.25,1.67.56,3.15,1.23,4.65a2.9,2.9,0,0,0,1.7,1.51c2.79,1.34,5.42,2.94,6.13,6.41.37,1.79,1.6,2.53,3.52,2.58a19.16,19.16,0,0,0,1.94,0c1.57-.12,2.92-.39,3.63-2.2.53-1.35,1.72-1.37,2.81-.42A8.09,8.09,0,0,1,365,283a12.72,12.72,0,0,0,2,7.61c.33.5.62,1.18,1.1,1.39,2.22,1,4.35,2.13,6.95,2,3.8-.17,6.69-2.32,7.47-6a17.22,17.22,0,0,0,.6-4.58c-.11-1.74.59-3.26.77-4.91.17-1.46-.82-2.62-.68-3.94.36-3.39-1.47-6.07-2.82-8.87a10.14,10.14,0,0,0-2.74-3.37,22.28,22.28,0,0,0-4-2.11,26.25,26.25,0,0,1-8.52-7.4c-1.39-1.76-3-3.3-4.48-4.89a3.67,3.67,0,0,0-4.85-.1,5.56,5.56,0,0,0-1.78,4.11c-.1,1.29,0,2.59,0,3.88,0,.18-.16.36-.24.54-.13-.11-.32-.2-.39-.35a67.21,67.21,0,0,1-3.72-8.81c-.15-.47-.31-1.2-.07-1.49,1.13-1.36.25-2.91.54-4.32-1.33-1.54-.32-3.59-1.21-5.33-.66-1.3-.21-3.15-.82-4.5s-.62-3-1.2-4.36c-1.49-3.6-3.47-6.7-7.25-8.34a26.12,26.12,0,0,1-3.87-2.37c-.62-.41-.76-.91-.16-1.57a10.17,10.17,0,0,0,1.56-3.87,3.63,3.63,0,0,1,.93-2.55c1.44-1.81,2.48-3.86,4.55-5.19,1.8-1.16,1.65-1.32,3,.37.35.45,1.06.59,1.51,1,1.41,1.21,3.07.4,4.6.63a4,4,0,0,0,3.92-1.4c1.18-1.49,2.64-2.91,2.86-4.95a6.08,6.08,0,0,0-3.47-6.66,64,64,0,0,1-6.79-4.72c-.56-.4-.7-.67-.14-1.41a2.79,2.79,0,0,0,.1-3.65,8.61,8.61,0,0,1-1-2.48,5.56,5.56,0,0,1-.16-1.1c.51,0,1.21-.3,1.49-.07,1.19,1,2.32,2.12,2.25,3.9a32.3,32.3,0,0,1,0,3.23c-.16,1.08.72,1,1.19,1.43.68.62,1.41.28,2.11.41a25.63,25.63,0,0,1,2.74.37,13.74,13.74,0,0,1,6.46,4c1.27,1.37,2.54,2.67,4.67,2.85.87.07,1.74,1,2.47,1.75,2.82,2.7,2.81,6.19,2.19,9.61-.42,2.29-1.9,2.59-3.74,1.1-.5-.41-.91-.92-1.38-1.36-1.23-1.14-2.36-1.18-3.54-.06s-2.27,2.3-3.45,3.42c-.55.52-.88.54-1.34-.33-.85-1.61-1-1.55-2.56-.62a7.68,7.68,0,0,0-3.67,4.12c-.7,2.31-1.65,4.62-1.51,7.16.11,1.94.08,3.88,0,5.82a32,32,0,0,0,2,11.15c.76,2.3,1.69,4.65,3.71,6.21,1.12.86,2.45,1.77,3.92.84.73-.46,1.1-.38,1.59.17s1.47,1.16,1.67,1.89c.42,1.53,1.77,1.54,2.77,2.1s2.07.6,2.67,1.28a21.51,21.51,0,0,1,3.08,4.2,26.14,26.14,0,0,0,5.66,7,4.77,4.77,0,0,0,4.08,1,1.8,1.8,0,0,0,1.19-.94c.57-1.3-.23-3.16-1.47-4.22-.68-.59-1.61-1.39-1.64-2.14-.1-2.28-1.63-3.72-2.79-5.33-1.35-1.87-3-3.48-4.52-5.27a7.39,7.39,0,0,1-1.76-2.81,8,8,0,0,0-2.36-3.9,17.17,17.17,0,0,1-2.72-3.4c-1-1.79-1.83-3.76-1.42-5.84.25-1.28.42-2.85,2.42-3.06a2.24,2.24,0,0,0,2-2.4c0-1,.26-1.86,1.12-2,.51-.08,1.28.63,1.71,1.16s1.21,1.72,1,2.08c-.75,1.17.18,1.81.53,2.57a6.88,6.88,0,0,0,1.59,2.24,5.21,5.21,0,0,1,1.76,4.1c0,1.44.73,2.6.74,3.94,0,1.51,0,3,0,4.53a7.87,7.87,0,0,0,.43,1.43,16.83,16.83,0,0,0,4.8,8,17.81,17.81,0,0,1,3.79,6.19c.7,1.72.62,1.87,2.32,1.78a3.86,3.86,0,0,1,3.32,1.42c1.53,1.67,3.17,3.23,4.79,4.82,1.19,1.17,1.73,1.24,3.31.45.63-.32,1.2-.76,1.8-1.13a4.91,4.91,0,0,1,.46-.23c.06.29.27.66.16.86a23,23,0,0,0-1.92,7c-.2,1.28-.75,2.5-1,3.78-.51,2.53-2.19,3.81-4.53,4.45-1.55.42-3.1.84-4.64,1.3a4.94,4.94,0,0,0-3.72,3.29,14.22,14.22,0,0,0-.3,3.44,11.39,11.39,0,0,1-2.25,6.19c-.17.23-.21.57-.36.82-1.12,1.86-.8,3.8-.25,5.72s.48,2-1.22,3.19a2.78,2.78,0,0,0-1.17,1.71c-1.27,4.42-1.52,4.7-4.82,8a8.21,8.21,0,0,0-1.13,1.15,13.2,13.2,0,0,0-1.76,6.06c.9.84.54,1.95.66,3s.53,2.19.61,3.29a17.09,17.09,0,0,0,2,6.31c.39.81,1.2,1.68,1.08,2.4s-1.15,1.37-1.75,2.08c-.46.55-.84,1.16-1.28,1.73a28.48,28.48,0,0,0-4.82,10.29,11.87,11.87,0,0,0-.07,5.59,6.07,6.07,0,0,0,4,4,17.39,17.39,0,0,1,6.48,4.67c.94,1,2.13,2.25,1.35,3.48s-2.59,1-4.05.92c-.08,0-.14-.18-.23-.21-2.58-1.09-4.58-.18-6.42,1.7a2.33,2.33,0,0,0-.42,3.11,8.2,8.2,0,0,0,.7,1.32,10.21,10.21,0,0,1,2.22,6.86c0,1-.5,2.16.51,3,.18,2.78,1.67,5.13,2.49,7.7s2,5,1.49,7.79c-.17,1-.43,2-.64,3a35.06,35.06,0,0,1-2.24,5.87c-.11.28-.44.46-.67.69-.41-1.09-1.64-.27-2.19-.93-.32-.37-.74-.92-.67-1.31.32-1.84-.91-3.44-.71-5.23-2-4.46-3-9.33-5.72-13.49a10.52,10.52,0,0,0-1.16-1.77c-1.1-1.1-2.34-.76-2.78.82-.36,1.27-1,2.53-.69,3.94,0,.13-.21.32-.32.48-.1-.17-.29-.34-.3-.52-.06-2,.21-4-.64-5.89-.05-.12.25-.4.39-.61.4.62.81.52,1.14,0,1-1.64,1.73-3.3.39-5.13-.17-.23-.26-.71-.41-.72a6.93,6.93,0,0,0-2.54.09c-.43.14-.74.94-.91,1.5a5.77,5.77,0,0,0,0,1.61c-1.17-.61-2.54-1.55-1.82-2.82.53-.93,0-1.28-.17-1.78a6.36,6.36,0,0,0-1.11-1.69l1.92-.83c1-.43,2-.8,3-1.31a12.63,12.63,0,0,0,4.4-3.37,3.34,3.34,0,0,0,.23-1.83c0-.88-.75-.46-1.17-.63a1.54,1.54,0,0,1-.74-.72,16.34,16.34,0,0,1-1.27-5.93c-.15-2.69.21-5.42-.15-8.07-.16-1.19-.44-2.4-.55-3.63s-.4-2.63-.63-3.94a12.71,12.71,0,0,0-3.41-7.32q-1.62-1.58-3.2-3.21a2.5,2.5,0,0,1-.34-.68,2.72,2.72,0,0,1,.59-.14c1.08,0,2.16,0,3.23,0a13.6,13.6,0,0,0,6.42-1.69c2-1,3-2.66,2.48-4.7-.49-1.86-1.48-3.59-1.27-5.61-.86-.19-.33-1.41-1.52-1.71s-1.19-1-.22-2.33c1.53-2.15,1.31-2.35-.1-5.13-.83-1.65-1.95-3.22-2.12-5.29A19.38,19.38,0,0,0,359.1,302a26.15,26.15,0,0,0-5.39-8.75c-2.78-2.77-5.73-5.38-8.64-8-.6-.54-1.35-.91-2-1.39a1.35,1.35,0,0,0-2,.06c-.56.59-1.49,1-1.27,2.06-1.31,1.18-.09,3-1.2,4.38-.5.6.84,2.22,1.72,2.25a13.43,13.43,0,0,0,1.62,0c.79-.07,1.11.14,1.14,1a13.08,13.08,0,0,0,.36,3.71c.65,2,.61,4.28.91,6.43a1.47,1.47,0,0,1-1.07,1.73c-2.11.35-3.33,2-4.81,3.17-3,2.3-5.67,5.11-8.5,7.68a20.34,20.34,0,0,0-3.74,5.25c-1.14,2-2,4.15-3.29,6.06-1,1.53-1.68,3.23-2.66,4.71-.69,1-.67,2.42-1.8,4.73a8.72,8.72,0,0,1,.34,2,3,3,0,0,1-.64,1.31,4.56,4.56,0,0,1-.67.69l-.41-.89c.26-1.28.47-2.36.71-3.44a5.59,5.59,0,0,1,.32-.82l.11.32h0v0h0a8.87,8.87,0,0,1,.25-2.52c.87-1.68.94-3.51,1.36-5.27s1.25-3.58,1.82-5.39c1-3.32,2.64-6.45,5.53-8.31,2.29-1.48,3.24-3.52,4.17-5.73.65-1.55,1.32-2.15,3-2.18,1.45,0,2.9.17,4.29-.6.5-.27,1-.06,1.27-1s.73-1.35.32-2.26A17.3,17.3,0,0,1,338.6,297a21.1,21.1,0,0,0-2.74-8.9A93.65,93.65,0,0,0,330,278.5a21.63,21.63,0,0,1-3.54-6.61c-.21-.75-.27-.88.5-1.33a6.34,6.34,0,0,1,3.33-.57c2.27-.07,3-1.15,2.5-3.49-.28-1.29-.42-2.63-.63-3.92a84.31,84.31,0,0,1-.73-10.39,12.44,12.44,0,0,0-1.27-4.66,2.57,2.57,0,0,0-1.36-1.52,4.83,4.83,0,0,0-4.74.58,12.08,12.08,0,0,0-4.31,8.89c-.05,1.54-.94,3-.75,4.56a.7.7,0,0,1-.51.22c-.25-.08-.61-.28-.64-.47-.07-.4-.12-1,.11-1.21,1.08-.94.36-1.72-.36-2-3.31-1.31-3.06-4.09-3-6.82,0-.16.43-.45.65-.44a.86.86,0,0,1,.59.52c.17.52-.32,1.27.76,1.41s1.07-.59,1.42-1.19a12.14,12.14,0,0,0,1.81-6.37c2.76-6.61-4.25-14.06-10-13.28-1.52.2-2.24,1.42-3.56,1.62.17.9-1.64,1.62-.15,2.72.46.34.37,1.36.76,1.91s.79.66-.29,1.07-2.41.5-3.35,1.26-1.81,1.85-2.77,2.71c-1.42,1.28-1.77,3.21-2.8,4.65-1.87,2.6-1.13,5-.19,7.52a13.12,13.12,0,0,0,3.67,5c.6.56,1.43,1,1.24,2.23l.09.12.08.12c-.11-.05-.19.18-.17-.24-3.24-2-5.66-4.75-8.24-7.3a7.61,7.61,0,0,1-2.25-3.28,4.21,4.21,0,0,0-1.44-2.27c-1.73-1.12-3.9-.94-5.83-1.52-.62.78-1.51.54-2.32.68a5.48,5.48,0,0,0-2.52.88c-.88.74-2.05,1.18-2.54,2.42-.87,2.19-2.12,4.39-1.31,6.76.36,1.06.7,1.85.11,2.82-.31-.84-.69-1.67-.92-2.53-.29-1.08-.44-2.19-.67-3.29-.43-2.09-.73-4.21-1.32-6.25a18.75,18.75,0,0,0-5.53-9.37c-3.29-2.86-6.4-5.92-9.6-8.9-.08-.07-.15-.16-.23-.23-1.2-1-2.18-.61-2.75,1a27.64,27.64,0,0,1-1.29,3c-.78,1.57-.81,1.55-2.63,1-1.47-.47-1.83-.35-2.54.87a9,9,0,0,1-1.53,2.57c-3.53,2.87-6.92,4.14-11.65,3a16.79,16.79,0,0,0-7.3,0,43,43,0,0,1-7,1.14c-1.64.08-3-.72-4.59-.74a20.56,20.56,0,0,1-8.12-2.25c-1.48-.66-2.7-1.72-4.16-2.43-1.18-.58-1.48.22-1.56.56-.16.72,0,1.62-.81,1.91a3.77,3.77,0,0,1-2.44.22,4.62,4.62,0,0,1-2.36-2c-1-2.23-2.75-2.58-4.8-2.45-2.83.18-5.65.38-8.47.65a7.34,7.34,0,0,1-5.59-2.12,9.44,9.44,0,0,0-6.45-2.4c-2.4,0-4.86-.38-7.18.63-4.57-.14-9.06,1.11-13.65.66a19.89,19.89,0,0,0-3.23,0,71.39,71.39,0,0,1-13.31-.75,32.37,32.37,0,0,0-4.6-.56c-.92-1.44-2.54-.21-3.8-1-1.1-.73-2.74-.63-4.13-.9a64.54,64.54,0,0,1-7.92-3.53c-2.12-1.32-3.93-3-5.91-4.53-4.4-3.3-9.05-6.26-13.54-9.43a21.39,21.39,0,0,1-4.42-3.79A4.19,4.19,0,0,0,88,206.45c-1-.36-1.62-.75-2.41.1-2.28-.34-4.68.69-6.87-.61-2.57.42-4.68-1.52-7.2-1.37-3.29-2.13-7.2-2.91-10.55-5.05s-6.47-4.06-9.1-6.87a15.74,15.74,0,0,0-4.75-3.41c-1.11-.54-2.46-.53-3.45-1s-1.71-2-2.59-3a4.93,4.93,0,0,0-1-.63c-3.86-2.62-8.24-4.44-11.74-7.6a4.42,4.42,0,0,0-1.33-.69c-.54-.22-1-.23-1.1.56-.05.37-.57.68-.59,1-.09,1.44-.72.71-1,.21a8.7,8.7,0,0,0-7.1-3.88c-1.5.12-3,0-4.53,0-3.31-.06-5.88,1.61-8.17,3.67-1.54,1.39-1.21,2.89.56,4.1.59.41,1.45.73,1.69,1.3a24.16,24.16,0,0,0,4.91,7c.48.53.82,1.21,1.33,1.7,1.47,1.42,1.29,3.22,1.24,5,0,.18-.41.5-.62.49-1.16-.07-1.49.62-2,1.52s-.91,2-.5,2.64c1.67,2.5-.26,4.16-1.34,5.76-1.91,2.81-2.23,4.32-1.53,7.75.61,3,.68,6-2.1,8.38a45.88,45.88,0,0,0-4.84,5.41c-2.15,2.55-1.51,4.23,1.8,4.8.21,0,.47-.07.64,0a1.81,1.81,0,0,1,.81.66,5.13,5.13,0,0,1,.64,2A10.48,10.48,0,0,0,6.5,241c1.37,2.73,2.06,4.18,1.87,6.66-.35,4.7.9,9.3.68,14,.85,1.67.27,3.56.73,5.21.61,2.19.81,4.41,1.22,6.61.17.89.43,1.76.64,2.65s.35,2,.67,3c.77,2.31,1.17,4.82,3.41,6.38a1.8,1.8,0,0,1,.43,1.4c-.2,2.44.67,4.66,1.34,6.9,1.29,4.29,2.73,5.9,6.64,7.82a6.8,6.8,0,0,1,1.33.7c2.51,2,5.1,4,7.45,6.2a69.82,69.82,0,0,1,5.5,6.12A6.2,6.2,0,0,1,40,317.44a9.87,9.87,0,0,0,2.06,4.67c1.32,1.84,2.68,3.67,4.12,5.41a28.41,28.41,0,0,1,4.33,7.92,13.33,13.33,0,0,1,.59,3.64c.14,1.21.4,2.41.63,3.62a24.28,24.28,0,0,0,.88,4.17c1,2.54,1.6,5.17,2.36,7.76s1.31,5.3,1.81,8a26.24,26.24,0,0,1,.81,4.24,14.21,14.21,0,0,0,.66,4.25c.53,1.53.23,3.18.72,4.56a15.81,15.81,0,0,1,.54,3.33,18,18,0,0,1,.59,3.29c-.12,2.34,1.2,4.5.69,6.85,1.5,2.33-.17,5.21,1.29,7.55q.32,5.37.64,10.74c0,.32-.12.73,0,1a6.12,6.12,0,0,1,.58,4.27c-.22,1.64.75,3,.69,4.59-.1,2.31.78,4.45,1.48,6.52.54,1.59,1.49,3.52,3.87,3.6.39,0,.82.82,1.11,1.33.87,1.53.61,3.24.67,4.9.08,2.27,1.26,3.79,3.42,4a3,3,0,0,1,2.23,1.59,18.58,18.58,0,0,1,2.07,4.3c.78,2.38,1.23,4.88,2,7.27s1,5.13,1.85,7.64c.4,1.22.14,2.61.63,3.95s.24,2.59.63,3.94c.45,1.54.24,3.24.66,4.9s.21,3.46.65,5.23c.48,2,.25,4.11.61,6.2.52,3,.25,6.05.68,9.11.62,4.39-.19,8.86.64,13.33.7,3.81-.11,7.77.64,11.71.58,3.05-.05,6.3.71,9.43.35,1.44.6,1.81,1.91,1.15.87-.44,1.81-.68,2.12-2,.19-.8,1.26-1.42,2-2.06a1.23,1.23,0,0,1,.86-.14c.11,0,.27.32.28.5,0,.65,0,1.3,0,1.94.32,5.41-.52,10.83.56,16.25.59,3-.14,6.07.67,9.12.55,2.09.16,4.44.82,6.47a20.61,20.61,0,0,1,.54,4.3c.18,1.53.57,3.05.61,4.59a7.23,7.23,0,0,0,4.22,6.66,19.3,19.3,0,0,1,3.63,3,2,2,0,0,1,.57,1.36,5.14,5.14,0,0,0,1.25,3.72c.28.31.07,1,.86,1a13.88,13.88,0,0,1,2.27.49c.13-.84,1.59-.08,1.51-1.27,0-.6,0-1.49.33-1.74s1.24-.09,1.88-.09c1.4,0,2.81,0,4.21,0a2.74,2.74,0,0,0,2.63-1.5c.56-1.08,1.72-1.39,2.77-1.72,2.87-.91,5.84-.63,8.79-.66.79,0,.9.53.62,1-1.8,3.33-4.94,5.23-7.94,7.26-.21.14-.76-.1-1.07-.29a4.11,4.11,0,0,1-.92-.9,2.52,2.52,0,0,0-3.21-.51,12.19,12.19,0,0,0-4.17,4.68,2.21,2.21,0,0,0,1.72,2.94c.21,0,.43,0,.65,0l2.71.35-1.83,1.83c-.31.31-.73.56-.89.93-.43,1-1.25,2.19-1,3a21.19,21.19,0,0,0,3.31,7.37c2.3,3,3.77,6.5,6.2,9.4a5.1,5.1,0,0,1,.69,1.33c.29.7-.19,1.09-1.15,1-.53-.05-1.09.07-1.61,0-2.2-.4-3.29.85-4,2.64-.11.28-.18.57-.29.85-.43,1.11-.61,2.51-1.4,3.25-.61.56-2,.3-3,.39-.21,0-.51-.09-.63,0-.5.44-1.28.89-1.35,1.43-.35,2.37-.49,4.78-.7,7.17a3.2,3.2,0,0,1,0,.64c0,.16-.23.28-.35.41a1.86,1.86,0,0,1-.27-.53,7.05,7.05,0,0,1,0-1c0-2-.53-4.3.14-6.1.76-2,.14-4.05,1-6,.81-1.79.19-11.39-.71-13.2-.59-1.18-.17-2.27-.58-3.33s-.86-2.24-1.18-3.39.24-2.38-.55-3.68c-.58-.94-.12-2.52-.12-3.81,0-1.94,0-3.88,0-5.83a1.52,1.52,0,0,0-1.53-1.62,2.2,2.2,0,0,0-2.26.82,11.11,11.11,0,0,0-1.44,3c-.57,1.45-1,3.29-3.15,3.35-.23,0-.59.48-.65.78-.31,1.48.51,2.85.58,4.26a75.49,75.49,0,0,1,0,9.38c-.25,3.21.71,6.28.7,9.44,0,5.5.1,11,0,16.5s.54,10.84-.55,16.25c-.4,2,0,4.09-.09,6.13a41.9,41.9,0,0,1-.69,7.16,36.33,36.33,0,0,0-1.23,8.54,1.8,1.8,0,0,1,0,.64c-1.4,3.51-.32,7.17-.58,10.74,0,.43.68,1.31,1.06,1.32a12.44,12.44,0,0,0,4.69-.34,5.5,5.5,0,0,0,3.93-5.38c0-1.58.52-2,2.13-2a7.85,7.85,0,0,1,5.36,2.66c.18.19.17.57.26.85a11.35,11.35,0,0,0,3.67,5.57,43.83,43.83,0,0,0,9.53,5.86,6.68,6.68,0,0,0,5.92-.19A21.94,21.94,0,0,0,141,686c3.18-2.5,6.38-5,10.83-4.31,2.9.47,5.11-1.13,7.45-2.35a20.37,20.37,0,0,0,2.26-1.58c1.3-.92,1.67-.94,2.65.16a6.45,6.45,0,0,1,1.35,2,4.31,4.31,0,0,0,2.49,2.51c2.77,1.36,5.52,2.59,8.69,2.47.32,0,.75-.13,1,0,1.75,1.34,3.84.8,5.55.46,1.45-.29,2.86-.33,4.29-.5s3.07-.37,4.58-.65,3.21-.9,4.91-.63c1.55-1.41,3.11-.49,4.64,0a7.14,7.14,0,0,1,4,2.79c.76,1.23,2.14,2.39,1.54,4.22-.26.8.32,1.33.79,1.93a4.68,4.68,0,0,1,1.15,3.41,27.52,27.52,0,0,0,0,2.91,2.1,2.1,0,0,0,1.61,2.17,7.79,7.79,0,0,0,1.61,0c.54,0,.77.14.33.68-.65.8-1.2,1.67-1.85,2.46a2.66,2.66,0,0,0-.27,3c1.39,1.77,3,3.48,5.58,3.59a4.75,4.75,0,0,0,3.9-1.54c.34-.37.5-.54.77.14a4.38,4.38,0,0,0,3.81,2.69c3,.44,6-.21,8.75-.83a35.89,35.89,0,0,0,8.42-3c.17-.09.51.08.63,0,2.23-2,5-3,7.79-3.87.77-1.32,2.53,0,3.39-1.27.14-.2.82-.06,1.25,0a15.33,15.33,0,0,1,7.68,2.56c4.67,3.19,9.28,6.47,14.52,8.7a13.35,13.35,0,0,1,4.75,3.41,15.38,15.38,0,0,0,3.81,3.26c2.2,1.25,4.18,2.95,6.95,2.79a1.11,1.11,0,0,1,.73.41c1,1.16,3.51,7,3.91,8.74.56,2.49.93,5.07,3.24,6.77.53.39.65,1.47,1.19,1.7,1.16.5.26,1.31.42,1.92a35.31,35.31,0,0,0,3.86,8.1,32.27,32.27,0,0,1,2.72,5c.62,1.75,2,3.41,1.57,5.55-.11.61.65,1.43,1.11,2.08a11.85,11.85,0,0,0,1.36,1.39l-1.69,1.15a.61.61,0,0,0-.2.24c-.85,1.87-1.83,3.76-1.16,5.88a4.62,4.62,0,0,0,3.79,3.18c.59.12,1.17.3,1.75.45a6.14,6.14,0,0,0-1,1.38A20,20,0,0,0,312.7,782a46.58,46.58,0,0,0-.06,5.17c0,1.78,1.14,3.4.66,5.23,1.16,1.06.36,2.58.93,3.83a47.89,47.89,0,0,1,1.85,5.06,33.08,33.08,0,0,1,1.56,5.49,46.87,46.87,0,0,1,.11,6c-.81.23-.24,1.56-1.55,1.7-.69.07-1.25,1.51-1.84,2.35a3.09,3.09,0,0,0-.1,3.26c.31.64.31,1.82,1.64,1.39.11,0,.62.53.6.79-.05.91.39,1.89-.51,2.71-.23.21-.08,1,.09,1.47a8,8,0,0,0,7,5.29,6.23,6.23,0,0,1,3.13,1.08c2.07,1.29,4,2.85,6.1,4.05a25.94,25.94,0,0,0,5,2c2.76.88,5.69.76,8.53,1.21,2,.32,4,.09,5.35,2,.07.1.47-.06.61,0,2.7,1.9,5.95,2,9,2.46,1.82.3,3.59,1,5.55.86a2.69,2.69,0,0,1,2.61,1.79c.08.25.27.63.47.66a29.22,29.22,0,0,0,4.26.65c2.69.1,5.4-.11,8.09.07,2.52.17,5.14.43,7.26,1.94a13.76,13.76,0,0,0,6.55,2.89,101.25,101.25,0,0,0,10.16.06,2.34,2.34,0,0,0,1.42-.43c.58-.5.95-1.64,1.49-1.69.75-.08,1.41.8,2.47.1a23,23,0,0,0,3.8-2.55,16.67,16.67,0,0,1,7.27-4.32,33.32,33.32,0,0,0,4.9-1.43,35,35,0,0,0,4.81-2.42,4.09,4.09,0,0,1,3-.56,8,8,0,0,0,4.48-1q10.8-5.22,21.43-10.77c2.1-1.09,3.88-2.67,3.31-5.51-.06-.31,0-.65,0-1a2.93,2.93,0,0,1,1.16-2.77c2.15-2,5.08-2.37,7.54-3.69,1.28-.69,2.72-.54,4.06-1.16,1.16-.53,2.76-.16,4.15-.08a1.28,1.28,0,0,1,1,.72c.42,1.72,1.8,1.48,3.06,1.95,2.54,1,5,.23,7.54.54.91-.83,2.34-.25,3.15-.94,1.82-1.56,4.13-1.53,6.18-2.32,1.51-.59,3.15-.29,4.55-.75a16.8,16.8,0,0,1,2.69-.53c1-.16,2-.55,3-.61a22.46,22.46,0,0,0,7.61-2,9.21,9.21,0,0,1,6-.22,13.94,13.94,0,0,1,6.06,3.41,6.14,6.14,0,0,0,4.65,2c2.1-.17,2.62-.17,4.37.67a5.15,5.15,0,0,0,5.24-.12,5.47,5.47,0,0,1,3.08-1.2c2.91.05,5.83,0,8.74.06.86,0,2.12.27,2.49.86,1.52,2.4,4.36,2.65,6.32,4.26,1.86,0,3.23,1.11,4.67,2,2.23,1.36,4.19,3,5.05,5.69a10.54,10.54,0,0,1,.31,3.09,6.79,6.79,0,0,0,5.1,6.65c1,.2,2,.82,2.94.65a7,7,0,0,0,2.91-1.51c2.7-2.15,5.31-4.4,8-6.61,1.28-1.07,2.52-2.2,3.87-3.18a12.14,12.14,0,0,1,2.91-1.54,15.49,15.49,0,0,1,6.31-.7c2,.11,4.1-.06,6.15,0s3.92.48,5.88.6a23.51,23.51,0,0,0,4.85,0c2.29-.33,4.55-.65,6.47-2.4a27.4,27.4,0,0,1,6.09-4c4.45-2.25,9-4.25,13.6-6.22a71.71,71.71,0,0,0,13.21-7.2,21.38,21.38,0,0,1,13.18-4.13,15.13,15.13,0,0,1,10.5,4.28,27.32,27.32,0,0,0,7.1,4.82,4.66,4.66,0,0,0,2.65.67c.85-.09,1.73.07,2.58,0s1.76-.49,2.65-.61c1.74-.23,3.6.46,5.23-.66,3,.08,5.91-.79,8.86-1.25,2.32-.36,4.5-1.12,6.74-1.71,2.73-.71,5.23-2,8.14-2.35a13.21,13.21,0,0,0,4.84-1.52,34.69,34.69,0,0,0,6.24-4.43c2.15-1.87,4.18-3.9,6.4-5.68a10,10,0,0,1,5.43-2.49,5.49,5.49,0,0,0,1.17-.29c3.91-1.24,7.54-3.16,11.3-4.76,3.59-1.52,6.91-3.55,10.57-5,2.51-1,5.07-1.8,7.58-2.79s5.27-1.26,7.89-2,5.14-1.63,7.68-2.57c3.71-1.37,7.41-2.94,11.53-2.66a8.29,8.29,0,0,0,4.85-1.55,96.66,96.66,0,0,0,10.83-8.22,61.43,61.43,0,0,1,11.9-8c2.72-1.35,5.33-1.59,7.89.09,3.84,2.51,8.17,2.62,12.36,2a77.47,77.47,0,0,0,9.22-1.9c1.46-.39,3-.53,4.43-1,3.76-1.14,7.64-1.86,11.46-2.84a63.91,63.91,0,0,0,6.9-2.08,19.29,19.29,0,0,1,4.7-1.2c2.72-.32,5,1.11,7.53,1.5,3.58.56,8.44.72,12-.49a51.4,51.4,0,0,0,9.28-4.16c4.84-2.82,9-6.54,13.31-10a2.37,2.37,0,0,0,.68-1c.73-2,2.69-2.25,4.28-2.48a34.56,34.56,0,0,1,7.1-.06c2.45.15,4.78-.48,7.18-.67,3.68-.3,7.35.12,11.08-.53,4-.69,8.21,0,12.34-.7,3.62-.6,7.34,0,11.07-.62s7.56,0,11.38-.67,7.56.1,11.39-.64c3.59-.69,7.34.06,11.06-.65,3.38-.64,6.91,0,10.41-.65s7.35.07,11.06-.66c3.28-.64,6.69,0,10.09-.62s7.14,0,10.73-.69c2.75-.57,5.61,0,8.48-.6s5.83-.14,8.78-.66c3.18-.57,6.48-.1,9.76-.65,3.61-.61,7.34,0,11.06-.64,4-.66,8.2,0,12.35-.64,4.69-.7,9.51.11,14.29-.66,4.37-.71,8.85.14,13.33-.63,3.92-.67,8,.09,12-.69,3-.57,6,0,9.13-.59,3.38-.61,6.93,0,10.4-.72,2.44-.48,5.07.41,7.49-.71,3.72.38,7.37-.62,11.06-.61,3.5,0,6.9-1.17,10.41-.69.11,0,.25,0,.32,0,1.41-1.08,3.05-.47,4.59-.65s3.05-.48,4.59-.63a67.93,67.93,0,0,0,8.12-.76,41.36,41.36,0,0,0,4.25-.66,4.68,4.68,0,0,1,2.35-.49c1,.19.86-2.08,2.17-.8.58.56,1.34,1.33,2,1.32,2.65-.06,5.25,1.44,7.79.66,2.85-.87,5.67-.35,8.49-.56.54,0,1.23.21,1.59,0,1.36-1,2.86-.45,4.29-.62s3.06-.44,4.59-.64a36,36,0,0,0,5.54-.72,13.33,13.33,0,0,0,5.09-2.47c2.28-2,4.7-4,6.27-6.74C1280.6,699.07,1281.2,698.86,1280.42,698.18ZM349.6,172.92c-.12.83-.36,1.66-1,1.79-1.31.26-1.92,2.22-3.44,1.36-1.5.4-1.64-.44-1.44-1.39.37-1.76.83-3.49,1.29-5.23.1-.39,1.9-.78,2.26-.4C348.32,170.16,349.89,170.9,349.6,172.92ZM131.71,520.43a28.76,28.76,0,0,1-6,2.6,89.17,89.17,0,0,0-11.52,4.2c-3.23,1.38-6.4,3.45-7.39,7.39a4.6,4.6,0,0,1-.82,1.27,1.75,1.75,0,0,1-1.94.77c-.67-.15-1.12-1.06-1.1-2.28,1.46-2.64-1.11-4.18-2.3-6-1-1.57-1.81-3-1.58-4.86.32-2.63-.65-4.78-2.18-6.87-1.8-2.46-1.88-5.41-1.68-8.33a1.59,1.59,0,0,1,.6-1,4.31,4.31,0,0,1,1.83-1c2.56-.3,4-2,5.3-3.93,1.15-1.66,1.83-1.86,3.1-.41a30.08,30.08,0,0,1,4.51,5.89c1.21,2.39,3.23,3.41,5.39,4.18,4.14,1.47,8.4,2.62,12.6,4a15.69,15.69,0,0,1,3.29,1.4A1.64,1.64,0,0,1,131.71,520.43ZM354.33,404.1a3,3,0,0,1,1.69-1.84c1.06-.58,1.4.15,1.77.65s.15,1,.26,2a8.43,8.43,0,0,1-.86,1.48,14.38,14.38,0,0,1-2,2c-.18.15-1-.12-1-.19A21.92,21.92,0,0,1,354.33,404.1Zm-1.52,9.13c0-.3.38-.76.62-.8.44-.06,1.08-.34,1.3.46.13.47.55.89.61,1.36.28,2.06,1,4.08.65,6.2-.06.35-.31,1-.47.95-.52,0-1.05.3-1.52-.59a8.82,8.82,0,0,1-1.23-5.35A16.31,16.31,0,0,1,352.8,413.23Zm-11.06-65.32c.1-1.43-.33-2.61.82-3.27.27-.15,1-.1,1,.05.86,1.78,2.23,3.37,2.05,5.53,0,.21.08.49,0,.63-.49.66-1,1.28-1.54,1.92a9,9,0,0,1-1.34-1.24A5,5,0,0,1,341.74,347.91Zm-14.45,12a7.62,7.62,0,0,0,1.54-5.17c0-4.62-.06-9.24,0-13.85a32.43,32.43,0,0,1,.64-4.56A.58.58,0,0,1,330,336a2.32,2.32,0,0,1,.79.36s0,.21,0,.31c-.48,2.65.79,5.15.67,7.79s0,5.15,0,7.73c0,3,0,6,0,9a4,4,0,0,1-.56,2.37c-.46.72-.7,1.42-1.64,1.53a2.12,2.12,0,0,1-2.15-1.58C326.71,362.44,326.41,361,327.28,359.93ZM303.55,263h0Zm-.56-1.1a3.78,3.78,0,0,1,.38.61c-.18-.34-.43-.64-.61-1C302.83,261.71,302.9,261.83,303,261.95ZM260,413.43a8.79,8.79,0,0,0-.45,2.05c0,1.72,0,3.44,0,5.16,0,.41.07.94-.14,1.22-.43.55-1.09,1.39-1.55,1.33-.66-.08-.87-1-.93-1.79a17,17,0,0,1,1.53-7.46c1.38-3.42,2.81-6.8,3.86-10.35a10,10,0,0,0,.48-2.05,3,3,0,0,1,3-2.77c.08.31.37.79.24,1-1.3,1.82-1.62,4.08-2.7,6A31.5,31.5,0,0,0,260,413.43Zm12.2,11.19a1.73,1.73,0,0,1-2.23.67c-1.77-.59-3.68-.84-5.28-1.9-.34-.22-.79-.4-1-.71a2.55,2.55,0,0,1-.25-1.46c0-.18.65-.3,1-.4a5,5,0,0,1,1,0,21.92,21.92,0,0,1,6.82,2.77C272.45,423.66,272.38,424.32,272.22,424.62Zm.09-31.16c-.64,1.67-2.26,2.87-3.57,2.75a2,2,0,0,1-1.31-2.93,7.38,7.38,0,0,1,2.9-2.16c.51-.21,1.49.43,2.09.89C272.64,392.18,272.49,393,272.32,393.46Zm14.61,76.66a24,24,0,0,1-3.41,1.79,16.26,16.26,0,0,1-2.6.68,9,9,0,0,1-1.59,0c-.35-.09-.95-.32-.94-.46,0-.52-.31-1.05.56-1.52a45.64,45.64,0,0,1,6.33-2.48c.45-.16,1.17.21,1.67.51A.8.8,0,0,1,286.93,470.12Zm.3-58.18a3.86,3.86,0,0,1-.31-3.26,2.25,2.25,0,0,1,.42-.79c1.77.17,4,2.89,3.94,4.29a1.6,1.6,0,0,1-1.63,1.5A4,4,0,0,1,287.22,411.94Zm7.18,68.89c-.93.84-1.59-.29-1.85-.54a13.45,13.45,0,0,1-3.18-5.26,1.55,1.55,0,0,1,1.45-1.78,3.83,3.83,0,0,0,.88.62c2.33.87,2.78,3,3.44,5A1.8,1.8,0,0,1,294.4,480.83ZM299.67,470a4.31,4.31,0,0,1-3.47,2.63c-1.45,0-3,.35-4-1.28a1.6,1.6,0,0,1,.26-2.2,5.6,5.6,0,0,1,3.79-1.23c1,.28,1.91.59,2.88.82C300,468.89,299.76,469.54,299.67,470Zm-.17-48.67c-.32.49-1.71.13-1.71-.46,0-1.82-1.08-2.08-2.52-2-.82.06-.9-.55-.73-1,.44-1.33.63-2.78,1.84-3.78.69-.56,1.23-.45,1.56.19.87,1.68,1.63,3.42,2.43,5.12A12.85,12.85,0,0,1,299.5,421.29ZM294.36,360c-1.35.77-2.35,2.17-3.5,3.28-.08.07-.22.16-.21.23.22,3.4-3.07,4.33-4.59,6.51-2.8,1-4.06,3.63-5.57,5.76a26.38,26.38,0,0,0-4.2,8.27A7.56,7.56,0,0,1,274,388a1.61,1.61,0,0,1-2,.27,1.58,1.58,0,0,1-.77-1.92c.67-2.09,1.34-4.19,2.21-6.2a10.79,10.79,0,0,1,2-2.71,9.94,9.94,0,0,0,2-2.68c.54-2.76,2.4-4.65,4.08-6.74,2.41-3,5.26-5.55,7.78-8.42,2-2.3,3.7-4.91,5.52-7.4a40.8,40.8,0,0,0,2.27-6.5q.91-4,1.94-7.93a10.41,10.41,0,0,1,2.86-5c1.19-1.16,2.59-2.15,3.25-3.82.45-1.16.49-1.21-.58-1.37-.56-.09-1.46.44-1.6-.48a2.25,2.25,0,0,1,.51-2.36c1.06-.91,2-2,3-3s2.19-2.19,2.31-3.91c0-.35.39-.71.67-1,.44-.46.87-.46,1.25.14.9,1.44.58,3,.65,4.56-.11,1.36.14,2.67-.59,4-.57,1,.53,2.55-.67,3.59,0,4.29-2.29,7.91-3.57,11.79-1.13,3.41,1.11,5.18,3.83,5.39.64.05,1.31-.07,1.94,0a4.22,4.22,0,0,0,4.44-1.81,3.54,3.54,0,0,1,.9-.66c.28.42.76.83.8,1.27a22.24,22.24,0,0,1,0,3.55c-.09,1.34-1.28,2-2.16,2.6a9.65,9.65,0,0,1-4.22,1.44A31.89,31.89,0,0,0,303.6,355C300.26,356.25,297.4,358.29,294.36,360ZM353.2,444.6c-1.15,2.55-2.52,5-3.6,7.57a48.09,48.09,0,0,0-3.39,10.59,9.63,9.63,0,0,1-6.61,7.83c-1.05.36-1.66.62-1.74,1.8a7.53,7.53,0,0,1-2.37,4.83c-2.06,2.07-4,4.25-6.76,5.55a9.46,9.46,0,0,1-9.36-.7,11.75,11.75,0,0,1-4.62-5.13,7.68,7.68,0,0,1-.88-3.22,5.92,5.92,0,0,0-6.72-5.67c-1.89.29-2.31-.06-3-1.61a8.5,8.5,0,0,1-.61-3.63c0-.54,0-1.08,0-1.62l.17,0c-.27-2.17-.65-4.33-.79-6.5s.44-4.45-.14-6.44c-.94-3.29-.24-6.54-.54-9.79a2.93,2.93,0,0,1,0-.65c.15-1.13.74-1.38,2.14-.92.55.18,1.05.28,1.09-.54a7.68,7.68,0,0,0,0-1.29c-.13-1,.45-1.46,1.22-2a15.17,15.17,0,0,0,2.62-2.24,1.37,1.37,0,0,0,0-1.24c-.36-.69-.57.14-.86.18a4,4,0,0,1-1.88,0c-.42-.17-1.14-.32-.67-1.51.81-2.06,1.21-4.24,2.74-6,.31-.36.31-.84,1-.86a1.49,1.49,0,0,1,1.62,1.19,15.27,15.27,0,0,0,1.26,3.7,11.16,11.16,0,0,1,.7,3.91,19.12,19.12,0,0,1-2.57,9.93,3.94,3.94,0,0,1-.65,1,12.73,12.73,0,0,0-3.92,10,2.28,2.28,0,0,0,1.34,2.36c2,1.13,2.44,3.44,3.21,5.42.4,1,.6,2.12.94,3.17.86,2.61,2.93,4.29,4.82,6.08.94.89,2.14.54,3.26.19,1.33-.41,1.91-.05,2,1.25a7.63,7.63,0,0,1,0,1.94c-.37,1.92.81,3.32,1.94,4.33s2.4,2.2,4.4,1.89a3.29,3.29,0,0,0,2.68-1.87,10.72,10.72,0,0,0,1.37-4.94c-.07-2.08-.23-4.19.6-6.21.56-1.36,1.27-2.48,2.89-2.59.8-.06,1.75.23,1.77-1.08a17.73,17.73,0,0,0-.3-2.67,13.11,13.11,0,0,0-8.42-4.66c-.53-.08-1.09.05-1.61,0-1.8-.25-2.76-1.19-2.67-3.06.06-1.14-.46-1.41-1.27-1.72-2-.75-2.56-2.29-2.71-4.33a18.94,18.94,0,0,1,2.08-9.19c1.92-4.25,4.08-8.46,7.61-11.74,2-1.9,4.64-2.85,7-4.24a1.05,1.05,0,0,1,.94,0c.27.19.6.73.51.9a4.42,4.42,0,0,1-1.09,1.17,21.37,21.37,0,0,0-7.24,10.86,60.81,60.81,0,0,0-1.94,7.93c-.3,1.62-.12,1.71,1.61,1.76,2.65.07,4.11,1.94,5.43,3.78a26.17,26.17,0,0,1,3.2,5.78,9.85,9.85,0,0,0,2.46,3.51c1.6,1.6,2.68,1.28,3.44-1a28.08,28.08,0,0,1,6.58-10.54c.15-.15.28-.39.46-.44.57-.16,1.16-.25,1.75-.37C353.18,443.45,353.42,444.13,353.2,444.6ZM322,461.67a2.14,2.14,0,0,1,1-.71c1.58-.46,2,0,2,2a3.94,3.94,0,0,1-1.22,3.34c-.42.43-1.19,1.12-1.43,1a2.46,2.46,0,0,1-1.18-1.56A5,5,0,0,1,322,461.67ZM370.15,445c-2.71-.73-4.86-2.36-7.17-3.81-.86-.54-1.6-1.34-1.63-1.89-.13-2.31-2.07-3.14-3.34-4.44a11.23,11.23,0,0,0-4.47-2.38c-.16-.06-.77.5-.73.65.32,1.15.72,2.28,1.14,3.4s1,2.19,1.31,3.33c.1.36-.3.91-.58,1.29-.07.09-.66,0-.86-.23a11.69,11.69,0,0,1-3.63-7.85,4.85,4.85,0,0,0-.56-2.37c-.29-.46.42-1.48.53-2.26s-.06-1.52,0-2.25a5.22,5.22,0,0,1,.67-2.28,8,8,0,0,1,2.11-1.65c.09-.06.47.23.66.41a5,5,0,0,1,1.73,3.81c0,2.2.24,1.82,2.58,2.88,1.57.71,2.45-.43,3.68-.32a.74.74,0,0,0,.35-1.35,3.4,3.4,0,0,1-.68-1.94,2.41,2.41,0,0,1,.49-1.32c.37-.61.6,0,.91.15.95.56,1.91,1.1,2.89,1.6,1.28.66,1.16.53,2.23-.62,1.77-1.91,2.29-4.48,3.72-6.55a9.29,9.29,0,0,1,.69-.79c.2.29.55.58.57.88.08,1,0,1.94,0,2.9-.3,4.5-.69,9-2.4,13.21a5.9,5.9,0,0,0-.18,1.86c0,.64.14.89.87,1.3a4.55,4.55,0,0,1,2.38,4.41C373.39,444.68,372,445.52,370.15,445Zm15.06-18.19c-2.18,1.24-4.38,2.57-7.12,2.4-2.39,0-2.65-.47-1.34-2.66a3.34,3.34,0,0,1,1.28-1.2,34.23,34.23,0,0,1,4.08-1.8,3.32,3.32,0,0,1,2.17-.1,4.89,4.89,0,0,1,2.07,1.71C386.5,425.38,385.76,426.51,385.21,426.82Zm1-8.68a4.6,4.6,0,0,1-3.61,1.27,2,2,0,0,1-2.11-1.69l.16-2.75a3.86,3.86,0,0,0,.64-3,1.32,1.32,0,0,1,1.25-1.5c.44,0,1.07.61,1.31,1.1.88,1.78,1.63,3.62,2.43,5.43.08.18.13.38.19.56A1.9,1.9,0,0,1,386.17,418.15Zm-81-153.92c-.7.48-1.23.86-1.79,1.19a1.34,1.34,0,0,1-.44-.63c-.06-1.12.14-2.27-.65-3.24-.1-.13,0-.41,0-.62,0,0,.26,0,.3,0C303.41,261.95,304.21,263,305.19,264.23Zm56.2,117.39c-.24.6-.34,1.46-.68,1.58-1.13.39-.64-1-1.19-1.41-.27-.21-.12-1.11,0-1.65a1.38,1.38,0,0,1,1.13-.08A5.56,5.56,0,0,1,361.39,381.62ZM577.85,34.24l.76.36-.91,1.05c-.1-.1-.3-.23-.29-.3C577.53,35,577.69,34.61,577.85,34.24ZM332.42,103.62l-.3-.38c.14,0,.36-.15.39-.11a1.8,1.8,0,0,1,.2.49Zm245-67.68-.38.3c0-.14-.15-.36-.11-.39a1.8,1.8,0,0,1,.49-.2ZM318.27,336.27v0Zm-.19,1.7c0-.25.06-.46.09-.68,0,.18,0,.36,0,.51Zm33.13,107.49c.07.07.21.18.2.2a3,3,0,0,1-.29.39l-.29-.29ZM333.73,422.8c.07.08.21.18.2.2a3,3,0,0,1-.29.39l-.29-.29Zm-61-35.71c-.09-.19-.29-.4-.25-.54,1-3.13,1.72-6.46,4.46-8.72.15-.12.44-.08.67-.11,0,.21.1.46,0,.62-1,1.93-2.22,3.78-3,5.79-.39,1-.49,2-1.42,2.62Zm80.75,28.12.23-.23a2,2,0,0,1,.2.43c0,.05-.13.14-.2.21Z"/>
	</g>
	<g id="orange-dot">
		<circle class="cls-3" cx="389.72" cy="365.93" r="19.19"/>
	</g>
	<g id="orange-ring">
		<circle class="cls-4" cx="389.72" cy="365.93" r="29.67"/>
	</g>
	<g id="yellow-dot">
		<circle class="cls-5" cx="1171.27" cy="352.93" r="16.67"/>
	</g>
	<g id="yellow-ring">
		<circle class="cls-6" cx="1171.27" cy="352.93" r="27.66"/>
	</g>
	<g id="blue-dot">
		<circle class="cls-7" cx="366.6" cy="453.83" r="13.76"/>
	</g>
	<g id="blue-ring">
		<circle class="cls-8" cx="366.6" cy="453.83" r="19.86"/>
	</g>
</g>
</svg>