<?xml version="1.0" standalone="no"?>
<!DOCTYPE svg PUBLIC "-//W3C//DTD SVG 20010904//EN"
 "http://www.w3.org/TR/2001/REC-SVG-20010904/DTD/svg10.dtd">
<svg version="1.0" xmlns="http://www.w3.org/2000/svg"
 width="140.000000pt" height="140.000000pt" viewBox="0 0 140.000000 140.000000"
 preserveAspectRatio="xMidYMid meet">
<metadata>
Created by potrace 1.11, written by Peter Selinger 2001-2013
</metadata>
<g transform="translate(0.000000,140.000000) scale(0.100000,-0.100000)"
fill="#000000" stroke="none">
<path d="M593 1205 c-170 -46 -314 -191 -357 -360 -32 -120 -9 -287 51 -383
67 -106 169 -187 282 -223 79 -25 225 -29 284 -7 36 13 32 14 -85 15 -92 1
-138 6 -185 21 -68 21 -153 67 -153 82 0 8 87 105 191 214 l28 29 46 -51 c26
-29 52 -52 59 -52 7 0 44 61 82 135 38 74 73 134 77 132 4 -1 61 -92 125 -201
64 -110 123 -201 130 -204 17 -5 15 23 -4 60 -15 29 -14 33 9 87 38 85 50 138
49 226 -1 134 -51 253 -147 349 -121 122 -318 175 -482 131z m254 -165 c57
-25 130 -95 159 -153 28 -54 41 -154 27 -206 l-9 -33 -49 86 c-32 54 -55 85
-65 83 -8 -1 -42 -54 -75 -117 -33 -63 -66 -126 -74 -140 l-14 -24 -49 54 -49
55 -64 -69 c-38 -40 -71 -66 -78 -63 -22 8 -76 97 -92 151 -19 61 -19 96 -1
163 50 189 256 290 433 213z"/>
</g>
</svg>
